<?xml version="1.0" standalone="no"?>
<!DOCTYPE svg PUBLIC "-//W3C//DTD SVG 20010904//EN"
 "http://www.w3.org/TR/2001/REC-SVG-20010904/DTD/svg10.dtd">
<svg version="1.0" xmlns="http://www.w3.org/2000/svg"
 width="927.000000pt" height="1280.000000pt" viewBox="0 0 927.000000 1280.000000"
 preserveAspectRatio="xMidYMid meet">
<metadata>
Created by potrace 1.16, written by Peter Selinger 2001-2019
</metadata>
<g transform="translate(0.000000,1280.000000) scale(0.100000,-0.100000)"
fill="#d87093" stroke="none">
<path d="M4945 9663 c-70 -17 -175 -83 -258 -162 -78 -74 -165 -214 -197 -316
-7 -22 -35 -91 -62 -153 -27 -62 -54 -140 -60 -175 -16 -96 -10 -93 -213 -81
-66 4 -139 6 -163 6 -42 -1 -140 -35 -265 -90 -33 -15 -77 -26 -103 -26 l-46
-1 -42 67 c-22 37 -59 86 -81 111 -40 43 -59 65 -191 224 -80 95 -142 146
-239 196 -109 56 -177 72 -242 57 -43 -9 -56 -17 -64 -36 -15 -41 -10 -99 17
-202 14 -53 29 -113 34 -132 58 -221 97 -310 173 -392 26 -29 38 -55 52 -115
10 -43 24 -89 31 -103 16 -32 60 -73 100 -94 18 -8 46 -30 64 -48 18 -17 46
-39 63 -48 26 -14 33 -26 42 -72 6 -30 19 -67 28 -82 10 -15 15 -31 12 -36 -3
-5 -1 -11 4 -14 9 -6 17 -38 27 -116 5 -40 94 -226 163 -341 11 -19 28 -47 38
-64 27 -45 25 -176 -3 -241 -12 -27 -27 -74 -34 -104 -7 -30 -20 -68 -28 -85
-9 -16 -15 -33 -14 -37 4 -14 -20 -113 -29 -122 -5 -6 -9 -18 -9 -29 0 -17
-29 -117 -37 -126 -2 -3 -10 4 -19 15 -15 19 -16 19 -9 -1 16 -45 17 -55 6
-55 -7 0 -10 -3 -8 -7 3 -5 -7 -19 -22 -33 -14 -14 -23 -21 -18 -16 4 6 7 15
7 21 -1 14 -40 -35 -40 -50 0 -7 -15 -15 -35 -17 -26 -3 -35 0 -35 10 0 12 -3
12 -15 2 -13 -11 -15 -8 -15 19 0 19 6 34 15 37 8 4 15 12 15 20 0 8 5 14 11
14 6 0 8 -9 4 -20 -5 -15 -3 -18 9 -14 12 5 15 2 10 -10 -4 -9 -1 -16 6 -16 7
0 10 -7 6 -15 -3 -8 -1 -15 4 -15 6 0 10 8 10 17 0 9 8 26 18 37 16 20 16 20
-1 7 -27 -21 -33 -4 -6 18 13 11 20 20 16 21 -4 0 -3 9 3 20 8 15 6 21 -10 30
-12 6 -29 9 -38 7 -12 -3 -9 -6 11 -12 27 -7 32 -25 9 -33 -7 -2 -12 4 -12 14
0 14 -3 15 -12 6 -9 -9 -7 -16 6 -31 16 -17 16 -19 2 -17 -20 3 -48 40 -38 51
4 5 1 5 -5 1 -7 -4 -13 -16 -13 -27 0 -11 -4 -17 -10 -14 -17 10 -34 -6 -19
-17 10 -7 8 -8 -8 -5 -15 3 -20 1 -16 -9 3 -8 10 -14 17 -14 6 0 4 -5 -4 -10
-11 -7 -11 -10 -2 -10 7 0 11 -4 8 -9 -3 -5 -20 -7 -38 -6 -45 4 -45 4 -28 16
12 8 9 10 -12 6 -16 -2 -28 0 -28 5 0 5 -15 -2 -32 -15 -18 -14 -43 -28 -55
-31 -18 -6 -20 -10 -10 -21 6 -7 15 -11 20 -8 12 7 8 -3 -12 -25 -20 -24 -38
-18 -18 6 10 13 9 15 -5 9 -12 -4 -18 -2 -18 8 0 7 -4 16 -8 19 -5 3 -9 -8 -9
-24 0 -37 -7 -45 -30 -32 -16 10 -16 11 -2 17 10 4 16 17 16 33 0 15 -2 21 -4
15 -3 -7 -11 -13 -19 -13 -7 0 -11 -6 -8 -14 3 -7 -2 -16 -10 -19 -9 -4 -16
-1 -16 5 0 7 -7 3 -15 -8 -14 -18 -14 -18 -15 9 0 28 -15 37 -23 15 -2 -7 -7
-10 -11 -7 -4 4 6 21 21 39 24 30 25 32 5 21 -12 -6 -22 -16 -22 -21 0 -6 -6
-9 -12 -7 -7 1 -14 -10 -16 -24 -2 -15 -14 -36 -27 -49 -19 -18 -27 -20 -44
-10 -12 6 -26 8 -31 5 -6 -3 -10 0 -10 9 0 21 -22 26 -42 8 -16 -14 -18 -13
-18 0 0 9 16 29 36 45 25 20 35 35 32 49 -4 16 -7 14 -17 -11 -11 -26 -14 -28
-22 -12 -6 9 -7 23 -2 30 12 19 14 47 3 47 -6 0 -10 -9 -10 -21 0 -11 -5 -29
-10 -39 -8 -15 -6 -21 7 -28 14 -9 14 -11 -6 -22 -23 -12 -23 -11 -20 39 3 42
1 51 -11 48 -11 -2 -14 -14 -12 -44 3 -40 -10 -64 -23 -43 -3 5 -2 10 2 10 5
0 9 9 9 20 0 25 -7 25 -30 -1 -10 -12 -16 -30 -13 -40 3 -10 -4 -30 -15 -44
-26 -33 -36 -24 -14 12 l17 28 -20 -22 c-22 -26 -52 -33 -31 -8 7 9 10 19 6
22 -11 11 -26 -18 -27 -52 0 -16 -5 -39 -10 -50 -7 -15 -8 -11 -4 17 3 21 1
39 -5 43 -6 4 -10 3 -9 -2 3 -20 -2 -27 -11 -13 -8 11 -9 7 -4 -15 4 -16 3
-27 -1 -22 -5 4 -17 0 -27 -9 -13 -13 -21 -14 -31 -5 -8 6 -16 10 -18 8 -2 -1
5 6 16 15 15 13 16 18 5 18 -34 0 -48 -33 -21 -49 10 -7 11 -13 2 -30 -13 -23
-26 -27 -37 -9 -4 6 -3 8 4 4 6 -4 10 1 9 13 -1 12 -6 17 -16 13 -11 -4 -13 0
-7 19 4 13 8 31 9 39 3 20 23 41 37 38 7 -2 16 7 21 20 7 18 6 22 -4 19 -6 -2
-11 -10 -9 -16 1 -7 -2 -10 -7 -7 -5 4 -12 2 -16 -4 -9 -15 -25 -12 -25 4 0 9
-8 12 -25 8 -20 -3 -24 -1 -19 12 3 9 10 16 14 16 4 0 11 7 14 16 4 12 2 15
-9 10 -19 -7 -19 3 0 28 22 30 17 45 -5 17 -11 -13 -23 -41 -26 -62 -4 -22
-10 -39 -15 -39 -5 0 -6 -7 -2 -16 4 -12 8 -13 14 -3 6 10 13 7 28 -12 23 -27
27 -54 10 -65 -9 -5 -10 1 -5 22 6 27 5 28 -9 10 -8 -11 -15 -23 -15 -28 0 -4
-7 -8 -15 -8 -8 0 -15 -9 -15 -20 0 -21 -15 -27 -25 -10 -3 5 -12 7 -20 3 -8
-3 -15 -2 -15 1 0 4 13 12 29 17 16 6 32 17 35 25 7 19 -8 18 -24 -1 -7 -9
-20 -15 -29 -14 -9 1 -24 1 -34 0 -17 -1 -17 -2 -3 -17 18 -18 21 -34 6 -34
-5 0 -10 7 -10 16 0 10 -5 14 -15 10 -11 -4 -19 3 -27 22 -16 36 -18 38 -26
25 -4 -6 -20 -13 -37 -14 -24 -3 -30 0 -29 13 1 10 -2 15 -7 12 -14 -8 -10
-41 6 -47 8 -4 17 -2 20 3 8 12 36 1 58 -23 15 -17 15 -23 3 -36 -7 -9 -16
-23 -19 -31 -4 -11 -6 -9 -6 5 -1 12 4 26 11 33 6 6 9 15 5 18 -9 9 -37 -21
-37 -40 0 -14 -22 -16 -157 -17 -87 -1 -180 -1 -208 0 -27 0 -193 3 -367 5
-250 3 -318 2 -318 -8 0 -21 12 -27 28 -13 13 10 15 9 9 -6 -4 -10 -7 -20 -7
-22 0 -2 -10 -1 -22 2 -17 3 -19 2 -10 -5 11 -7 11 -10 -3 -15 -10 -4 -14 -3
-9 4 4 8 -1 9 -17 4 -24 -7 -24 -7 -4 10 18 15 18 16 2 11 -10 -3 -26 -6 -35
-6 -12 0 -13 -3 -4 -12 7 -7 12 -17 12 -23 0 -15 -68 -38 -108 -37 -25 1 -33
-2 -29 -12 3 -8 -2 -21 -12 -30 -25 -23 -34 -20 -21 7 11 21 10 21 -4 3 -9
-11 -16 -23 -16 -26 0 -9 -32 -6 -48 4 -6 4 -12 3 -12 -2 0 -14 -39 -22 -46
-10 -4 7 -9 6 -14 -2 -4 -6 -13 -13 -21 -14 -53 -10 -99 -29 -99 -40 0 -10 -8
-12 -22 -9 -23 5 -23 5 -3 -11 11 -9 16 -15 10 -14 -5 1 -23 -5 -38 -12 -23
-11 -26 -16 -15 -25 21 -15 31 -45 13 -39 -17 7 -50 -22 -36 -31 13 -7 9 -138
-4 -148 -6 -6 -6 -10 3 -14 6 -2 12 -11 12 -19 0 -17 14 -18 42 -3 16 8 22 8
29 -2 4 -7 5 -17 2 -22 -3 -5 -9 -4 -13 3 -5 8 -9 4 -13 -10 -4 -16 -2 -20 9
-16 9 3 12 2 9 -5 -9 -14 -30 -6 -30 12 -1 15 -14 16 -61 1 -17 -5 -35 -7 -40
-3 -14 10 -51 93 -58 130 -3 19 -14 40 -24 48 -9 8 -11 12 -5 8 8 -4 11 -1 7
9 -3 9 -12 12 -22 9 -11 -5 -14 -2 -9 10 4 10 -1 21 -12 29 -26 20 -34 37 -21
53 8 10 8 15 -1 20 -6 4 -16 1 -21 -6 -7 -10 -8 -9 -4 6 7 24 -2 39 -29 49
-16 6 -18 5 -7 -5 19 -20 15 -28 -13 -24 -14 1 -25 -1 -25 -6 0 -9 -37 -23
-60 -24 -13 0 -15 -28 -15 -195 l0 -194 25 -6 c14 -4 24 -12 22 -19 -1 -7 2
-10 7 -6 14 8 43 -39 35 -59 -5 -12 -10 -14 -19 -6 -15 12 -31 -3 -21 -19 4
-5 0 -12 -6 -15 -11 -5 -11 -7 0 -12 6 -3 9 -11 5 -17 -3 -7 3 -3 15 7 14 12
22 15 22 7 0 -7 6 -11 13 -8 6 2 11 9 10 15 -2 6 4 9 12 6 8 -4 12 -10 9 -15
-8 -13 20 -11 34 3 8 8 12 8 12 1 0 -6 -7 -14 -16 -17 -8 -3 -13 -10 -9 -15 3
-5 0 -13 -7 -17 -7 -4 -10 -4 -6 1 9 9 -9 35 -24 35 -6 0 -8 -7 -5 -15 4 -8 2
-17 -3 -20 -6 -4 -10 -1 -10 4 0 6 -11 11 -25 11 -13 0 -29 8 -34 18 -9 14
-12 14 -20 3 -7 -11 -9 -11 -14 0 -3 8 -6 -1 -6 -18 -1 -22 4 -33 13 -33 7 0
21 -11 30 -25 15 -23 15 -26 1 -31 -8 -3 -15 -10 -15 -15 0 -5 11 -2 25 7 15
10 25 12 25 5 0 -6 -7 -11 -15 -11 -8 0 -15 -4 -15 -10 0 -5 5 -10 10 -10 7 0
7 -8 -1 -22 -9 -16 -9 -23 0 -26 19 -6 13 -18 -17 -31 -22 -10 -25 -10 -14 0
14 15 17 53 3 45 -13 -8 -20 17 -16 54 3 18 0 28 -5 25 -14 -8 -9 -95 4 -95 7
0 7 -3 1 -8 -5 -4 -11 -18 -13 -31 -3 -17 0 -21 10 -16 10 6 11 5 1 -6 -17
-17 -17 -49 0 -49 7 0 8 -3 2 -8 -17 -12 -18 -71 -1 -78 14 -5 14 -44 -1 -67
-3 -5 0 -13 7 -17 9 -6 8 -17 -3 -51 -14 -39 -16 -332 -17 -2486 l0 -2443
2375 0 2375 0 0 21 c0 16 4 19 20 14 11 -4 20 -2 20 4 0 6 12 11 26 11 17 0
23 4 18 13 -4 6 2 4 13 -6 21 -19 21 -18 16 24 -4 30 -3 40 5 35 7 -4 12 -14
12 -22 0 -11 6 -13 23 -8 12 3 23 10 25 15 2 4 15 4 28 -2 33 -12 34 -12 27 8
-4 11 -3 14 5 9 8 -5 12 0 12 14 0 16 4 20 16 16 9 -4 28 4 46 19 16 14 36 25
43 25 7 0 15 6 18 13 3 9 8 9 21 -3 16 -12 19 -12 29 5 6 11 12 23 12 28 0 4
5 7 10 8 6 0 17 7 26 15 14 13 18 13 29 -1 12 -14 15 -14 31 4 11 11 19 25 19
31 0 15 16 12 30 -5 12 -15 35 -11 25 5 -3 5 5 12 17 16 13 4 28 14 35 23 8
10 12 12 13 4 0 -19 50 -16 50 2 0 9 6 15 13 14 46 -6 87 2 87 17 0 15 2 15
26 -1 23 -15 27 -15 50 0 22 14 26 14 49 -1 23 -15 29 -26 26 -47 0 -4 5 -7
13 -7 15 0 16 35 3 57 -10 15 42 11 73 -7 14 -8 28 -13 33 -12 4 1 7 -3 7 -10
0 -6 10 -2 23 10 13 12 30 22 38 22 10 0 11 2 2 8 -9 5 -6 11 9 21 19 12 20
11 15 -10 -3 -13 -1 -29 5 -36 8 -10 8 -17 0 -25 -7 -7 -12 -19 -12 -27 0 -12
6 -9 19 8 10 13 23 21 30 17 18 -11 13 2 -9 22 -22 20 -19 47 6 56 12 4 14 1
9 -14 -7 -22 5 -26 23 -8 7 7 12 8 13 2 1 -5 2 -18 3 -28 0 -11 7 -20 14 -22
7 -1 8 0 3 2 -11 6 -3 63 10 78 15 16 21 -1 9 -24 -6 -11 -9 -26 -7 -33 3 -7
9 -1 15 13 9 21 11 22 11 5 0 -11 -6 -31 -13 -44 -14 -25 -11 -49 11 -91 12
-24 13 -24 13 -3 0 12 -4 25 -10 28 -15 9 -12 41 6 56 17 14 17 14 65 -53 15
-20 18 -21 34 -8 15 13 17 12 14 -5 -3 -20 20 -65 33 -65 10 0 -3 74 -15 81
-5 4 -5 9 2 13 6 4 11 3 11 -2 0 -5 9 -12 20 -15 17 -4 20 0 20 29 0 41 15 44
28 7 7 -18 11 -22 11 -10 1 20 21 22 40 5 7 -7 12 -8 11 -3 -8 40 16 48 30 9
11 -27 30 -24 30 4 0 11 3 13 8 5 4 -6 21 -15 37 -19 27 -7 29 -6 16 9 -22 28
7 20 36 -9 27 -27 28 -22 8 31 -5 13 5 7 28 -17 35 -36 37 -37 97 -33 34 2 64
6 67 9 3 3 14 1 24 -5 13 -6 19 -6 19 1 0 26 19 6 25 -27 5 -26 9 -33 15 -23
6 9 4 17 -3 22 -9 6 -8 8 2 8 7 0 11 6 8 13 -3 9 7 14 35 16 34 2 40 -1 34
-15 -5 -14 -4 -15 9 -4 8 7 12 17 8 23 -4 6 -8 34 -10 62 -1 27 -8 60 -14 72
-6 12 -9 29 -5 38 5 15 8 15 28 1 34 -24 44 -19 18 9 -13 14 -22 25 -19 26 2
1 36 3 76 5 61 3 71 1 67 -11 -4 -11 -2 -13 9 -10 8 4 19 21 24 38 9 34 45 49
66 28 7 -7 18 -4 35 9 14 11 32 20 42 20 9 0 38 16 64 36 26 19 52 34 59 31 6
-2 19 6 28 18 11 13 31 22 55 23 21 2 46 9 55 17 17 17 39 20 39 6 0 -5 9 -11
20 -14 13 -3 20 0 20 9 0 8 5 14 10 14 6 0 29 9 50 19 39 19 39 19 37 -1 -1
-12 4 -23 11 -25 6 -3 12 3 12 13 0 16 26 43 44 44 4 0 5 -7 2 -16 -11 -29 5
-35 28 -12 13 13 34 31 47 41 24 18 24 18 30 -10 l6 -28 13 30 c13 28 14 29
17 7 4 -23 27 -30 38 -12 3 6 15 10 27 10 11 0 22 8 25 20 9 32 26 23 20 -10
-8 -37 -1 -38 31 -3 16 17 27 23 29 16 3 -8 13 -3 27 12 13 14 28 25 35 25 21
0 51 -35 51 -60 1 -25 1 -25 30 9 33 39 41 37 45 -11 2 -18 4 -35 4 -38 1 -3
12 8 26 23 28 29 40 33 50 16 4 -6 13 -8 21 -5 12 4 12 2 4 -15 -6 -11 -9 -28
-7 -37 4 -14 5 -13 6 3 1 11 9 29 17 40 15 20 16 20 39 -7 25 -29 45 -36 45
-17 0 8 4 8 13 1 6 -5 23 -8 36 -6 24 4 24 4 6 -16 -19 -21 -19 -21 25 -20 56
1 120 -10 120 -20 0 -4 -10 -15 -22 -23 l-23 -16 27 0 c15 -1 30 -5 33 -11 3
-5 15 -10 26 -10 18 0 25 -11 14 -22 -8 -8 -89 13 -96 25 -4 6 -9 5 -13 -1 -6
-9 23 -26 89 -53 18 -7 25 -13 17 -16 -10 -4 -8 -9 7 -20 12 -8 21 -21 21 -29
0 -8 3 -13 8 -12 4 0 14 -2 22 -5 8 -3 26 -7 40 -9 l25 -3 -23 -23 c-24 -24
-21 -48 5 -38 8 3 11 1 8 -4 -3 -6 -2 -10 4 -10 20 0 58 -47 88 -110 17 -36
40 -74 52 -84 11 -11 21 -27 21 -38 0 -10 3 -17 8 -16 4 1 17 -4 30 -11 22
-12 22 -14 8 -36 -13 -20 -13 -25 -1 -35 28 -23 15 -31 -15 -10 -22 16 -28 17
-24 6 9 -25 -8 -19 -43 15 -23 20 -33 25 -33 15 0 -8 8 -20 18 -26 15 -9 14
-10 -6 -5 l-22 6 17 -34 c11 -22 21 -30 25 -23 6 8 8 7 8 -1 0 -10 42 -13 175
-13 l175 0 0 68 c-1 61 -2 65 -15 48 -14 -18 -15 -18 -15 -2 0 10 8 31 17 47
13 22 15 34 7 46 -13 22 -39 31 -32 12 4 -9 -4 -19 -18 -26 -19 -9 -24 -8 -24
3 0 8 7 14 15 14 8 0 15 9 15 20 0 23 4 24 30 10 16 -8 19 -7 17 10 -3 42 -57
26 -57 -17 0 -12 -6 -7 -16 14 -20 40 -13 64 17 56 18 -5 20 -3 15 15 -4 11
-2 23 4 27 5 3 10 15 10 26 0 16 -5 19 -20 14 -13 -4 -22 -1 -26 9 -10 25 -22
19 -29 -17 -4 -17 -12 -38 -17 -44 -13 -16 -3 -17 22 -1 16 10 22 10 32 0 7
-8 9 -12 3 -10 -13 3 -75 -34 -75 -45 0 -5 7 -7 15 -4 8 4 17 2 20 -3 4 -6 1
-10 -4 -10 -6 0 -11 -5 -11 -11 0 -6 9 -8 20 -4 14 5 20 2 20 -9 0 -9 -5 -16
-11 -16 -6 0 -8 -9 -4 -20 7 -22 -5 -26 -23 -8 -7 7 -12 9 -12 6 0 -4 7 -14
16 -22 14 -15 13 -16 -11 -16 -14 0 -28 7 -31 15 -4 8 -10 13 -14 10 -15 -9
-41 8 -51 32 -6 16 -15 23 -23 20 -15 -6 -31 18 -27 40 1 8 -4 10 -14 7 -14
-6 -20 10 -16 44 1 6 -4 12 -11 12 -9 0 -9 3 2 10 12 7 11 12 -6 27 -33 29
-38 69 -12 87 20 14 18 21 -5 17 -5 -1 -6 8 -2 19 4 14 2 20 -7 18 -7 -2 -13
4 -13 12 0 8 -8 21 -18 29 -14 9 -16 16 -8 24 13 13 15 28 4 26 -23 -5 -73 25
-73 42 0 10 -7 19 -15 19 -22 0 -59 36 -50 49 5 10 -14 16 -37 12 -5 0 -8 3
-8 9 0 5 -9 10 -19 10 -11 0 -27 7 -35 16 -9 8 -16 11 -16 5 0 -8 -7 -7 -20 1
-11 7 -20 19 -20 26 0 8 -6 12 -14 9 -8 -3 -17 -3 -20 1 -4 3 -16 7 -28 9 -12
2 -26 9 -30 16 -4 6 -8 8 -8 2 0 -5 -5 -3 -10 5 -6 9 -13 11 -17 5 -12 -15
-56 -18 -47 -3 5 8 2 9 -9 5 -10 -4 -20 1 -27 11 -8 15 -11 15 -19 2 -8 -12
-15 -10 -41 15 -16 16 -30 23 -30 16 0 -8 -13 -3 -35 13 -19 15 -35 23 -35 19
0 -14 -58 -33 -63 -20 -2 6 -13 0 -25 -13 l-22 -24 0 23 c0 16 -5 21 -17 19
-10 -2 -17 -11 -15 -19 1 -9 -3 -7 -13 5 -8 11 -23 20 -32 21 -10 0 -24 5 -32
9 -8 5 -17 3 -22 -5 -6 -9 -8 1 -7 28 1 31 6 43 19 46 17 5 18 7 2 38 -9 19
-20 36 -24 39 -4 3 -12 18 -18 33 -6 15 -16 26 -23 25 -9 -2 -13 8 -12 30 0
17 -4 32 -8 32 -4 0 -8 18 -8 40 0 30 3 38 14 34 23 -9 28 14 12 48 -20 39
-20 37 7 32 12 -2 17 -2 11 1 -7 3 -10 14 -7 24 5 21 -17 33 -38 20 -11 -7
-10 -9 5 -9 16 0 17 -2 5 -17 -8 -9 -13 -24 -11 -34 2 -9 -2 -20 -8 -24 -8 -5
-11 4 -10 26 3 52 1 59 -16 59 -19 0 -14 20 8 34 12 7 20 5 33 -7 22 -23 39
-11 18 13 -9 10 -20 17 -25 14 -4 -3 -8 0 -8 5 0 6 4 11 9 11 10 0 2 48 -10
56 -5 3 -9 0 -9 -5 0 -6 -5 -11 -11 -11 -16 0 -6 63 11 68 13 5 13 3 1 -11
-11 -15 -11 -17 2 -17 8 0 17 5 19 11 3 8 10 6 21 -5 9 -10 17 -13 17 -8 0 5
-13 19 -30 32 -21 16 -30 32 -30 52 0 19 -4 27 -11 22 -8 -5 -10 4 -7 30 2 20
1 36 -3 36 -4 0 -7 47 -8 105 -1 58 2 105 6 105 4 0 9 89 11 197 2 130 7 200
15 205 8 5 7 10 -1 21 -7 7 -9 16 -7 19 3 3 10 111 15 239 6 129 16 324 24
434 12 162 21 421 17 470 -1 6 -4 123 -7 260 -9 457 -32 743 -78 990 -9 44
-18 109 -21 145 -6 61 -13 104 -34 210 -9 47 -15 121 -12 178 1 30 4 32 35 32
28 0 112 -27 96 -30 -22 -6 -48 -5 -45 1 6 9 -25 16 -47 11 -19 -4 -25 -22 -7
-22 5 0 7 -5 4 -11 -4 -6 -1 -10 6 -8 34 4 59 -2 59 -15 0 -8 8 -21 18 -28 25
-18 23 -47 -4 -77 -13 -14 -22 -26 -20 -28 6 -6 36 9 36 18 0 5 7 9 16 9 11 0
15 6 11 20 -3 10 1 24 8 30 10 8 17 5 29 -11 8 -12 12 -27 9 -33 -4 -6 -10 0
-13 14 -6 27 -14 20 -24 -23 -5 -19 -2 -29 8 -33 8 -3 12 -12 10 -19 -7 -16
25 -34 46 -27 12 4 11 1 -2 -15 -23 -26 -23 -36 1 -24 30 17 47 -10 31 -49
-10 -24 -10 -33 0 -45 7 -8 16 -12 21 -9 5 3 9 0 9 -5 0 -6 7 -11 15 -11 8 0
15 -5 15 -11 0 -5 -4 -8 -8 -5 -4 2 -9 -4 -9 -15 -1 -12 5 -19 16 -19 18 0 41
-18 41 -32 0 -4 -10 -8 -22 -8 -19 0 -20 -2 -8 -10 13 -8 13 -10 1 -10 -12 0
-12 -3 -3 -12 9 -9 15 -8 27 8 8 10 15 26 15 35 0 9 7 22 15 29 19 16 20 42 1
38 -14 -3 -16 0 -16 20 0 4 11 8 24 8 19 1 23 -2 19 -15 -6 -14 -4 -14 14 1
26 23 29 23 28 -6 0 -31 -13 -44 -26 -26 -8 13 -10 13 -19 0 -7 -11 -5 -16 5
-18 8 -2 15 -8 15 -14 0 -6 3 -8 6 -5 4 3 15 2 25 -4 16 -8 19 -6 19 11 0 11
4 20 9 20 5 0 3 -19 -4 -43 l-13 -44 29 0 c17 0 30 6 32 16 4 13 5 13 6 -2 0
-10 -6 -20 -14 -23 -8 -4 -15 -14 -16 -23 0 -10 -2 -11 -6 -3 -8 19 -31 14
-44 -10 -11 -20 -10 -21 3 -10 11 9 23 10 41 3 17 -7 28 -6 36 2 8 8 15 7 28
-6 16 -16 16 -17 -10 -17 -15 0 -27 -4 -27 -10 0 -5 6 -8 13 -6 46 15 67 16
67 3 0 -18 59 -15 70 3 4 7 13 9 19 6 16 -10 14 -44 -3 -48 -8 -2 -11 -10 -7
-22 6 -16 9 -16 22 -5 8 8 22 15 32 15 14 2 15 -1 6 -12 -9 -11 -9 -18 -1 -26
7 -7 11 -21 11 -32 -1 -17 -2 -18 -6 -3 -3 10 -14 17 -29 17 -14 0 -27 7 -30
15 -4 8 -11 12 -16 9 -6 -4 -7 2 -3 16 5 15 3 20 -3 16 -6 -3 -13 -2 -17 4
-10 16 -24 2 -19 -18 3 -9 19 -25 36 -35 19 -11 28 -23 24 -32 -7 -19 -1 -19
17 0 13 13 16 13 21 0 3 -8 2 -15 -3 -15 -4 0 -8 -21 -8 -46 0 -43 2 -45 15
-28 12 16 14 16 9 2 -4 -11 1 -23 14 -32 13 -9 16 -16 10 -21 -6 -3 -11 -1
-11 5 0 6 -4 9 -10 5 -5 -3 -7 -13 -4 -23 5 -14 4 -15 -5 -2 -5 8 -14 11 -18
6 -4 -4 1 -15 13 -25 16 -13 19 -22 13 -39 -5 -14 -14 -20 -24 -16 -19 8 -20
-10 -1 -25 10 -8 16 -9 21 -1 3 6 11 7 17 4 6 -4 8 -2 4 4 -3 6 -1 14 5 17 5
4 8 13 5 21 -3 8 0 11 10 7 9 -3 14 1 14 12 0 11 -5 15 -15 11 -13 -5 -14 -2
-4 15 6 12 9 32 6 44 -2 13 0 30 4 37 9 14 13 -7 10 -44 -1 -10 3 -18 8 -18 6
0 11 5 11 10 0 6 5 10 12 10 6 0 3 -9 -8 -21 -11 -12 -17 -32 -16 -46 2 -14
-2 -29 -10 -34 -11 -7 -10 -10 1 -21 11 -10 14 -10 18 0 3 6 10 12 18 12 7 0
18 7 25 15 12 14 15 14 32 -2 13 -12 15 -20 8 -27 -8 -8 -14 -6 -20 4 -8 12
-12 12 -18 2 -5 -7 -13 -12 -18 -11 -5 0 -19 -2 -31 -6 -28 -9 -31 -29 -3 -22
11 3 20 1 20 -4 0 -5 -4 -10 -10 -10 -5 -1 -14 -3 -20 -4 -5 -1 -17 -3 -25 -4
-9 -1 -12 -7 -8 -17 3 -8 11 -13 17 -11 9 4 11 -9 9 -44 -2 -46 -1 -49 22 -49
16 0 25 6 25 15 0 8 5 15 10 15 6 0 10 5 10 11 0 15 30 43 38 35 4 -4 -1 -21
-11 -38 -16 -28 -15 -57 1 -31 4 6 18 13 31 14 31 5 60 76 36 86 -8 3 -15 10
-15 15 0 7 4 7 13 0 14 -12 67 -4 67 9 0 5 -8 9 -17 9 -10 0 -24 4 -31 8 -15
10 -6 42 12 42 17 0 58 49 51 60 -3 5 0 12 6 16 7 4 9 3 5 -4 -3 -6 4 -18 16
-28 18 -13 19 -15 4 -10 -24 8 -67 -29 -59 -53 4 -13 3 -14 -6 -1 -11 16 -27
7 -16 -10 4 -6 13 -9 20 -6 18 6 40 -20 25 -29 -6 -3 -7 -11 -4 -17 5 -7 -2
-9 -20 -4 -21 5 -27 3 -23 -6 2 -7 0 -22 -6 -33 -26 -48 -11 -81 23 -50 10 9
29 15 42 13 18 -2 25 3 32 29 9 28 13 31 37 26 24 -4 26 -2 22 18 -2 13 3 33
12 44 15 19 15 19 10 -10 -16 -78 -14 -76 -40 -69 -20 5 -24 3 -19 -10 3 -9 1
-16 -5 -16 -9 0 -9 -5 0 -21 8 -15 8 -24 0 -32 -18 -18 -13 -29 12 -23 12 3
17 3 10 0 -7 -3 -9 -13 -6 -22 4 -13 3 -14 -5 -3 -8 11 -12 10 -22 -8 -12 -24
-50 -26 -58 -3 -3 11 0 12 18 2 24 -13 36 -8 25 10 -4 6 -13 9 -21 6 -15 -6
-30 36 -19 53 10 17 28 13 21 -4 -7 -18 3 -19 27 -1 16 12 15 14 -14 20 -35 7
-63 -9 -55 -31 7 -17 1 -17 -29 3 -14 9 -25 12 -25 6 0 -6 6 -12 13 -15 8 -3
5 -12 -11 -27 -15 -14 -27 -19 -33 -13 -11 11 -2 43 12 43 5 0 9 7 9 15 0 26
-18 16 -29 -15 -12 -35 -32 -41 -24 -7 3 12 2 19 -2 15 -5 -4 -13 -4 -19 0 -6
5 -27 3 -46 -4 -31 -11 -32 -13 -10 -14 25 -1 25 -1 5 -18 -11 -9 -20 -24 -21
-33 -1 -13 11 -15 73 -15 61 1 70 -1 56 -11 -9 -7 -11 -13 -5 -13 7 0 12 -6
12 -14 0 -7 7 -19 15 -26 10 -9 15 -9 15 -1 0 6 -4 11 -9 11 -5 0 -11 9 -14
20 -3 11 -2 20 2 20 4 0 16 7 27 16 16 13 16 15 2 10 -25 -8 -23 21 2 34 15 8
20 8 20 -1 0 -8 5 -7 17 2 14 12 16 12 11 -1 -3 -9 -15 -14 -29 -12 -23 2 -23
2 -4 -12 11 -8 23 -12 27 -10 5 3 8 0 8 -5 0 -6 -6 -11 -14 -11 -8 0 -22 -7
-31 -17 -16 -15 -16 -17 0 -26 15 -8 15 -11 -6 -33 -12 -13 -18 -24 -12 -24 6
0 13 5 15 12 3 7 10 8 17 3 10 -6 8 -11 -10 -21 l-24 -14 23 -6 c12 -3 22 -10
22 -14 0 -4 -10 -15 -22 -23 l-23 -16 24 0 24 -1 -22 -24 c-14 -15 -19 -26
-12 -31 16 -9 13 -25 -4 -25 -14 0 -19 12 -16 32 0 5 -5 8 -12 8 -7 0 -13 -9
-13 -20 0 -11 7 -20 14 -20 8 0 12 -6 9 -15 -4 -8 -2 -17 3 -20 6 -4 10 -1 10
5 0 7 7 10 14 7 10 -4 13 -1 10 7 -3 8 0 17 5 21 6 3 9 11 5 16 -3 6 2 19 12
30 13 15 19 16 26 7 5 -8 8 0 8 21 0 33 -1 34 -15 15 -14 -18 -14 -18 -8 3 3
13 9 23 13 23 5 0 8 14 8 30 -1 28 -18 45 -18 18 0 -9 -3 -8 -10 2 -5 9 -5 19
2 27 7 8 7 13 0 13 -12 0 -10 33 3 42 6 4 16 8 24 8 11 0 9 -4 -5 -14 -10 -8
-16 -18 -12 -22 4 -4 13 -3 20 3 7 5 26 10 42 11 29 2 29 2 11 -18 -10 -11
-15 -20 -10 -20 4 0 2 -7 -5 -15 -17 -21 -1 -19 35 5 34 22 45 25 45 10 0 -5
-6 -10 -13 -10 -8 0 -22 -8 -31 -19 -16 -17 -16 -19 4 -24 23 -6 27 -27 5 -27
-9 0 -15 -9 -15 -22 0 -19 2 -20 10 -8 8 12 12 13 19 2 14 -23 46 -10 43 16
-3 23 -3 23 21 7 14 -9 29 -15 33 -14 5 1 16 1 24 0 12 -1 12 -3 2 -10 -11 -7
-11 -9 2 -14 11 -5 16 -1 16 13 0 11 -5 20 -11 20 -5 0 -7 5 -4 10 9 14 -8 13
-23 -2 -6 -6 -15 -8 -19 -4 -4 4 -1 11 6 15 11 7 11 10 0 15 -8 3 -3 3 10 0
14 -4 27 -1 33 7 8 11 11 11 15 1 4 -10 8 -10 19 -1 11 9 14 9 14 0 0 -7 4
-10 9 -6 11 6 26 -33 17 -42 -3 -4 -6 0 -7 8 0 8 -5 3 -10 -11 -7 -17 -7 -26
0 -28 17 -6 13 -22 -6 -22 -14 0 -14 -3 -5 -12 10 -10 15 -10 22 2 5 8 7 22 4
31 -2 9 2 19 11 23 12 4 14 0 9 -22 -9 -38 -35 -66 -45 -50 -4 7 -12 9 -16 4
-4 -5 -2 -11 5 -13 6 -3 12 -11 12 -19 0 -8 13 -17 29 -20 28 -6 29 -8 25 -49
-4 -41 -3 -43 27 -47 29 -5 31 -3 25 24 -3 15 -1 28 4 28 6 0 10 5 10 10 0 18
-22 10 -27 -10 -3 -11 -9 -20 -14 -20 -5 0 -9 9 -9 20 0 11 7 20 15 20 8 0 15
5 15 11 0 5 -6 7 -12 3 -9 -6 -9 -3 0 9 8 9 10 22 6 28 -4 8 -3 9 4 5 7 -4 12
-16 12 -27 0 -13 7 -19 21 -19 15 0 19 -4 15 -16 -3 -9 -6 -18 -6 -20 0 -2 -8
-4 -17 -4 -13 0 -14 -3 -5 -12 8 -8 15 -8 27 2 22 18 19 57 -5 65 -11 3 -20
11 -20 16 0 6 4 8 9 5 11 -7 23 20 26 61 2 28 0 30 -11 15 -11 -15 -12 -14
-11 11 1 15 8 27 15 27 15 0 17 96 2 105 -5 3 -10 16 -9 28 1 20 2 20 9 -3 5
-16 8 6 8 63 1 82 0 88 -18 82 -10 -3 -22 0 -26 6 -4 7 -3 9 4 6 5 -4 17 -4
26 -1 13 5 15 42 15 285 0 154 -4 277 -8 274 -5 -2 -11 4 -14 14 -3 12 1 22 9
25 10 4 14 26 14 85 0 67 -3 80 -17 84 -17 4 -17 5 0 6 16 1 17 62 17 1127 0
756 -3 1132 -10 1145 -13 24 -28 25 -26 2 0 -11 -6 -18 -16 -18 -9 0 -20 -4
-24 -8 -12 -11 -26 -8 -18 5 5 8 0 9 -17 4 -13 -4 -34 -7 -47 -7 -13 1 -20 -4
-17 -9 3 -6 0 -10 -8 -10 -7 0 -14 6 -14 13 0 6 -3 22 -7 33 -5 15 -2 24 10
28 22 9 30 0 15 -18 -8 -10 -9 -16 -1 -21 5 -3 10 -3 10 1 0 3 6 1 13 -5 10
-8 14 -7 14 4 0 8 -4 12 -9 9 -4 -3 -8 2 -8 10 0 8 9 20 21 26 16 9 20 8 18
-2 -3 -29 2 -40 16 -34 8 3 15 1 15 -4 0 -5 7 -7 15 -4 12 5 13 10 4 20 -9 11
-7 14 12 16 13 0 31 1 40 0 12 -1 16 11 17 54 1 40 -2 54 -11 51 -7 -2 -16 2
-22 8 -5 7 -28 15 -50 19 -28 4 -35 2 -25 -4 13 -9 13 -11 0 -20 -11 -7 -16
-5 -18 5 -2 8 -7 15 -12 15 -5 0 -7 -7 -4 -15 4 -8 1 -15 -5 -15 -6 0 -10 5
-8 11 1 6 -4 14 -10 16 -7 3 -13 0 -13 -6 0 -6 -13 -11 -30 -11 -16 0 -30 5
-30 11 0 6 7 8 16 5 9 -4 23 -1 30 5 8 6 21 8 30 5 10 -4 14 -1 12 6 -6 18
-59 22 -70 6 -6 -9 -8 -8 -6 6 2 13 -6 25 -22 33 -14 7 -19 13 -10 13 9 0 26
-7 38 -16 13 -9 29 -13 36 -11 8 3 19 0 25 -6 6 -6 24 -13 39 -14 44 -3 86
-10 104 -18 17 -7 18 3 17 121 0 94 -3 124 -11 111 -5 -11 -11 -26 -13 -35 -2
-10 -4 -19 -5 -22 -1 -3 -3 -9 -4 -15 -7 -47 -40 -76 -67 -59 -7 4 -10 1 -7
-7 3 -8 17 -13 31 -12 19 1 24 -2 20 -13 -6 -17 -40 -19 -46 -1 -3 9 -7 9 -19
-1 -13 -10 -17 -10 -21 2 -4 9 -1 13 6 10 7 -2 13 4 14 16 2 21 -11 27 -22 10
-8 -13 -25 -13 -25 0 0 16 40 33 53 22 8 -7 17 -5 27 6 13 14 12 15 -5 9 -11
-5 -22 -3 -27 5 -6 10 -10 10 -18 -2 -8 -12 -10 -13 -10 -1 0 11 -5 10 -18 -5
-11 -10 -18 -25 -18 -33 1 -16 -43 -23 -61 -9 -7 5 -17 7 -23 3 -5 -3 -10 1
-10 9 0 20 -14 20 -30 1 -10 -12 -10 -15 4 -15 9 0 16 -5 16 -11 0 -5 -4 -8
-9 -4 -5 3 -12 1 -16 -5 -9 -14 -25 -13 -25 3 0 7 -18 13 -47 15 -26 1 -49 5
-52 8 -3 3 2 19 12 36 20 35 16 52 -5 19 -16 -25 -30 -28 -22 -3 5 13 4 14 -4
3 -5 -7 -15 -10 -21 -7 -6 4 -11 4 -10 -1 4 -25 -4 -33 -36 -33 -19 0 -35 5
-35 11 0 6 -7 3 -16 -5 -8 -9 -21 -16 -27 -16 -7 -1 -30 -9 -52 -20 -22 -10
-43 -16 -47 -14 -5 3 -8 0 -8 -5 0 -6 -9 -11 -20 -11 -11 0 -28 -5 -38 -10 -9
-6 -74 -30 -144 -55 -125 -43 -128 -43 -128 -22 0 15 -3 18 -8 9 -5 -7 -16
-10 -24 -7 -12 5 -14 1 -11 -18 6 -28 -20 -42 -69 -39 -16 1 -28 -2 -28 -8 0
-13 -62 -40 -105 -47 -16 -3 -34 -9 -39 -14 -18 -16 -41 -9 -80 26 -21 19 -33
35 -26 35 15 0 34 20 43 44 6 16 5 17 -7 7 -8 -7 -31 -14 -51 -16 -38 -3 -38
1 3 43 18 20 15 32 -9 32 -11 0 -17 -4 -14 -10 3 -5 3 -10 -2 -10 -10 0 -34
-50 -29 -59 2 -3 -10 -7 -26 -8 -26 -2 -29 0 -16 10 24 18 30 57 10 57 -15 1
-14 3 2 15 11 8 16 18 13 22 -4 4 -23 -9 -42 -27 -19 -19 -35 -29 -35 -23 0 7
8 19 17 28 20 20 26 62 11 71 -7 5 -9 1 -5 -9 3 -9 -1 -18 -10 -21 -12 -5 -14
-2 -8 16 16 53 17 68 5 68 -13 0 -39 -29 -40 -44 0 -4 7 -6 15 -2 8 3 15 2 15
-3 0 -15 -13 -21 -26 -10 -8 6 -21 8 -31 4 -10 -5 -21 -7 -25 -7 -5 1 -8 -3
-8 -9 0 -7 10 -9 25 -5 20 5 23 3 18 -11 -4 -10 -12 -22 -20 -26 -18 -11 -17
-27 2 -27 8 0 15 -5 15 -10 0 -7 -7 -7 -20 0 -15 8 -19 17 -15 31 4 11 2 19
-6 19 -8 0 -10 13 -6 40 4 35 3 39 -9 29 -8 -7 -14 -7 -14 -1 0 13 29 24 42
16 6 -4 5 3 -1 15 -8 14 -8 21 -1 21 5 0 10 -4 10 -10 0 -5 7 -7 17 -3 14 5
13 8 -5 14 -25 9 -55 1 -47 -12 3 -5 -10 -8 -30 -7 -19 1 -35 6 -35 12 0 6 -4
5 -9 -3 -5 -8 -16 -11 -25 -8 -25 10 -19 27 11 27 14 0 23 3 20 7 -4 3 5 17
19 30 14 12 20 23 13 23 -6 0 -18 -8 -25 -17 -12 -16 -13 -15 -4 10 13 35 13
34 -5 34 -9 0 -14 -6 -11 -13 2 -6 -5 -15 -17 -19 -19 -6 -20 -8 -4 -12 9 -2
17 -8 17 -13 0 -5 -7 -7 -15 -4 -9 4 -15 1 -15 -7 0 -9 -3 -10 -11 -2 -8 8 -8
17 0 32 14 25 12 25 -25 6 -39 -20 -51 -19 -57 6 -4 16 -3 18 8 9 10 -9 15 -6
20 10 5 16 12 20 28 16 12 -3 26 -1 33 5 9 8 11 5 7 -10 -3 -12 -1 -21 6 -21
6 0 11 13 11 29 0 16 6 31 13 34 7 2 8 8 3 13 -5 5 -11 4 -13 -3 -3 -7 -11
-13 -19 -13 -8 0 -14 -7 -14 -15 0 -8 -4 -15 -10 -15 -5 0 -10 3 -10 6 0 8 42
68 53 75 5 4 4 10 -2 13 -6 4 -14 0 -17 -8 -3 -9 -13 -16 -21 -16 -8 0 -11 -4
-8 -10 3 -5 0 -10 -9 -10 -8 0 -16 4 -18 9 -6 15 -48 24 -48 9 0 -10 -3 -9
-10 2 -11 17 -18 12 -23 -18 -2 -12 -6 -25 -10 -28 -9 -10 -9 -44 1 -44 4 0
12 10 17 22 6 12 18 23 28 24 23 3 22 -2 -8 -31 -27 -28 -37 -30 -65 -13 -16
10 -24 9 -51 -11 l-31 -23 -14 21 c-9 12 -20 21 -26 21 -11 0 -37 29 -38 42 0
3 9 4 20 1 14 -4 20 0 20 11 0 11 -4 14 -12 9 -7 -4 -21 -6 -30 -5 -10 2 -19
-2 -19 -7 -1 -6 -2 -16 -3 -23 -1 -14 -26 -23 -26 -10 0 6 -7 18 -16 26 -8 9
-11 16 -5 16 6 0 11 5 11 12 0 7 -6 6 -17 -4 -10 -9 -24 -13 -30 -11 -15 6
-17 33 -3 33 6 0 10 10 10 23 0 15 -3 18 -9 9 -4 -7 -14 -12 -22 -10 -8 2 -13
-3 -11 -10 1 -7 -4 -20 -12 -28 -13 -12 -15 -12 -21 6 -3 11 -3 24 0 30 3 5 1
10 -4 10 -6 0 -11 -10 -11 -22 0 -40 -14 -52 -41 -37 -13 7 -27 12 -31 11 -5
-1 -8 11 -8 28 0 16 -4 30 -9 30 -10 0 -24 38 -22 58 2 10 -4 9 -23 -3 -30
-20 -46 -13 -39 18 6 22 5 22 -18 -3 l-24 -25 -3 23 c-2 12 -8 22 -13 22 -8 0
-11 -8 -8 -26 1 -8 -22 -24 -35 -24 -5 0 -3 7 4 15 14 17 4 39 -16 31 -24 -9
-16 14 9 25 21 9 20 9 -5 6 -16 -3 -28 -1 -28 4 0 10 26 36 42 42 7 2 10 8 6
12 -5 5 -17 0 -28 -10 -11 -10 -20 -14 -21 -9 0 5 -4 0 -9 -11 -4 -11 -6 -30
-3 -42 3 -15 0 -25 -11 -29 -9 -3 -16 -12 -16 -20 0 -17 -26 -19 -36 -2 -4 7
-3 8 4 4 7 -4 12 -2 12 3 0 6 -9 11 -20 11 -13 0 -20 7 -20 20 0 11 5 20 11
20 13 0 38 30 38 45 0 6 -5 3 -12 -6 -7 -9 -23 -21 -36 -29 -21 -11 -23 -10
-18 3 3 8 0 18 -8 21 -16 6 -38 -17 -27 -28 4 -5 0 -7 -8 -6 -29 5 -80 -12
-73 -24 3 -6 -10 5 -30 23 -37 35 -52 57 -19 29 31 -27 40 -28 45 -7 4 16 2
19 -14 14 -14 -5 -17 -3 -13 10 4 9 12 14 19 12 6 -3 12 1 12 9 0 18 -2 18
-32 -2 -27 -18 -31 -13 -15 17 7 13 7 19 0 19 -5 0 -10 -7 -10 -15 0 -8 -7
-15 -15 -15 -8 0 -15 -5 -15 -11 0 -6 -6 -7 -12 -2 -7 4 -5 -5 5 -21 l19 -28
-24 7 c-19 6 -21 5 -10 -6 18 -20 15 -31 -7 -19 -13 6 -18 17 -14 32 4 21 3
22 -10 6 -17 -22 -31 -23 -23 -3 3 8 1 15 -5 15 -6 0 -7 5 -4 10 8 13 -16 13
-49 0 -30 -11 -32 -22 -9 -46 16 -16 16 -16 -7 -9 -14 4 -30 10 -36 12 -7 2
-15 0 -19 -6 -3 -7 3 -11 16 -11 18 0 19 -2 9 -15 -15 -18 -40 -20 -40 -4 0 8
-4 8 -13 1 -8 -7 -18 -7 -27 -2 -12 7 -10 11 9 18 21 7 22 10 7 15 -10 4 -22
5 -27 2 -5 -4 -6 1 -3 10 4 11 2 14 -9 9 -17 -6 -32 12 -17 21 6 4 8 10 5 15
-3 5 -1 18 5 29 7 13 7 22 0 26 -5 3 -10 -1 -10 -9 0 -18 -16 -21 -25 -6 -4 6
-15 8 -26 5 -11 -4 -19 -2 -19 5 0 6 4 9 9 5 5 -3 12 -1 15 4 9 14 -20 21 -34
8 -10 -9 -12 -8 -7 6 4 9 2 17 -3 17 -6 0 -10 -6 -10 -14 0 -8 -6 -16 -12 -19
-7 -2 -5 -3 5 -2 24 4 21 -10 -5 -23 -19 -10 -14 -11 30 -7 35 2 52 0 52 -8 0
-7 -19 -13 -47 -14 -27 -1 -49 -7 -51 -13 -2 -5 -10 -10 -17 -10 -8 0 -17 -5
-21 -12 -5 -8 -2 -9 12 -4 29 11 124 15 124 5 0 -8 -16 -11 -77 -13 -32 -1
-41 -16 -10 -16 15 0 27 -4 27 -10 0 -5 6 -7 14 -4 10 4 14 0 12 -13 -2 -11
-12 -19 -27 -20 -15 -1 -17 0 -6 3 24 7 11 24 -18 24 -13 0 -27 5 -30 10 -6
10 -23 8 -64 -8 -11 -4 -13 -1 -8 13 6 15 5 16 -8 5 -21 -17 -30 -6 -11 13 14
13 9 14 -42 11 -31 -3 -61 -9 -66 -14 -21 -21 -28 -9 -8 13 24 25 29 41 11 35
-6 -2 -9 -7 -7 -10 2 -4 -5 -13 -15 -20 -21 -16 -14 -44 13 -51 12 -3 17 0 14
8 -3 7 5 14 20 17 23 5 25 2 22 -23 -2 -20 1 -29 11 -29 8 0 11 5 8 10 -13 21
13 9 28 -12 12 -18 18 -20 25 -10 5 7 16 10 25 6 11 -4 19 1 24 14 8 20 8 20
20 -4 10 -21 9 -25 -1 -21 -8 3 -25 0 -38 -8 -22 -11 -36 -9 -109 16 -133 46
-412 109 -515 116 -92 6 -297 -16 -352 -38 -20 -8 -22 -7 -12 11 6 11 16 20
22 20 6 0 9 3 6 6 -4 3 -16 1 -27 -6 -20 -10 -21 -9 -17 15 3 14 1 23 -4 20
-4 -3 -11 2 -14 11 -4 10 -2 13 7 9 6 -4 4 0 -7 9 -10 8 -15 19 -12 24 3 6 1
12 -6 14 -15 5 -15 110 1 163 7 22 13 67 14 100 2 59 3 60 40 80 21 11 44 29
49 40 6 11 38 52 70 91 l58 70 6 120 c3 65 8 121 10 123 2 2 0 9 -5 15 -6 7 0
38 15 83 27 81 35 178 23 303 -5 47 -11 137 -14 200 -9 199 -15 239 -35 250
-20 10 -32 11 -65 3z m-1005 -3573 c0 7 7 10 15 6 8 -3 15 0 15 6 0 6 17 -7
37 -28 29 -32 35 -35 31 -16 -4 12 -2 22 3 22 5 0 9 -4 9 -9 0 -5 8 -7 18 -5
12 4 21 -4 29 -26 6 -16 7 -28 2 -24 -5 3 -10 -7 -11 -23 -2 -46 -3 -51 -11
-59 -4 -4 -1 -14 6 -22 9 -13 9 -14 0 -8 -10 5 -13 -5 -13 -38 0 -37 -4 -48
-22 -57 -20 -11 -21 -10 -10 3 10 13 9 18 -4 29 -14 11 -18 11 -29 -4 -16 -22
-25 -22 -25 1 -1 18 -19 47 -35 53 -5 2 -9 7 -8 11 5 15 -54 103 -75 113 -14
6 -22 19 -23 35 -1 17 -3 19 -6 8 -4 -18 -23 -25 -23 -10 0 5 -9 13 -20 18
-14 7 -17 13 -10 24 8 13 10 12 10 -2 0 -20 16 -25 22 -7 2 7 12 7 31 0 23 -9
29 -7 39 8 11 17 14 18 35 4 16 -11 23 -12 23 -3z m399 -79 c8 -5 10 -14 5
-22 -4 -8 5 -4 20 9 34 26 42 27 49 8 4 -11 1 -13 -11 -9 -14 6 -15 5 -2 -9 8
-9 20 -13 25 -9 33 25 42 19 41 -25 -1 -49 5 -54 26 -22 15 22 15 22 16 -11 0
-19 -5 -34 -14 -38 -8 -3 -14 -13 -14 -22 0 -14 2 -14 10 -1 9 13 10 13 10 0
1 -12 3 -11 11 3 6 9 14 15 19 12 11 -7 1 -37 -14 -47 -8 -5 -7 -8 1 -8 7 0
21 10 33 22 l20 22 -11 -32 c-6 -18 -14 -30 -18 -28 -4 3 -15 -4 -25 -15 -17
-21 -53 -22 -49 -1 2 7 -10 10 -32 8 -19 -1 -35 1 -35 6 0 4 -7 8 -15 8 -9 0
-12 6 -9 15 4 9 -1 18 -10 21 -22 8 -35 -5 -16 -16 12 -8 12 -10 -3 -16 -9 -3
-17 -10 -17 -15 0 -4 7 -6 15 -3 24 10 17 -10 -8 -22 -17 -7 -31 -7 -52 2 -36
16 -75 18 -75 4 0 -5 -7 -10 -16 -10 -8 0 -12 5 -9 10 3 6 0 10 -8 10 -7 0
-14 7 -14 15 0 8 5 15 11 15 5 0 1 6 -10 14 -18 14 -18 15 8 21 16 4 25 11 22
16 -3 5 -9 7 -14 4 -4 -2 -10 6 -12 20 -3 14 -1 25 4 25 5 0 4 8 -1 18 -6 11
-6 24 0 33 6 9 9 10 9 2 0 -8 7 -10 17 -6 11 4 13 8 5 11 -7 2 -10 8 -7 13 3
5 14 3 25 -3 15 -10 22 -9 37 4 10 8 23 13 30 11 6 -2 14 1 18 6 8 13 16 14
34 2z m-3056 -279 c-6 -4 -13 -16 -15 -27 -2 -11 -10 -19 -17 -17 -9 2 -9 -3
-1 -17 15 -28 27 -33 34 -15 4 9 9 14 13 11 3 -4 0 -13 -7 -22 -9 -11 -17 -12
-31 -4 -13 7 -26 6 -41 -2 l-22 -12 21 -8 c22 -8 40 -29 26 -29 -5 0 -15 6
-23 13 -8 6 -6 2 3 -10 12 -14 15 -23 8 -28 -13 -8 -14 -25 -2 -25 5 0 13 10
17 23 4 12 12 25 18 29 7 5 4 12 -9 22 -16 13 -17 15 -4 16 9 0 20 -10 26 -22
6 -15 12 -18 17 -10 4 7 2 12 -4 12 -6 0 -8 5 -5 10 3 6 11 10 16 10 6 0 8 -4
5 -9 -3 -5 0 -14 8 -20 11 -9 15 -9 19 1 4 8 6 7 6 -4 1 -14 -7 -18 -33 -18
-19 0 -38 -5 -42 -12 -5 -8 -2 -9 9 -5 9 3 19 2 23 -4 4 -6 11 -6 20 2 19 15
18 2 -1 -18 -9 -8 -22 -12 -30 -9 -10 3 -12 0 -8 -12 6 -15 4 -15 -9 -4 -14
11 -16 10 -11 -7 4 -16 1 -21 -15 -21 -13 0 -22 8 -25 23 -4 19 -4 18 -6 -5 0
-16 -6 -28 -12 -28 -6 0 -9 6 -6 13 17 46 19 59 6 55 -8 -3 -13 -12 -13 -21 1
-13 -2 -14 -16 -7 -24 13 -43 13 -35 0 4 -6 12 -7 18 -4 7 4 7 1 -1 -7 -11
-12 -16 -11 -28 6 -9 11 -20 19 -25 17 -20 -5 13 39 36 48 18 7 22 14 18 31
-4 14 0 25 10 31 9 4 14 15 11 22 -3 7 2 16 10 19 11 4 13 1 9 -11 -3 -9 16 4
42 31 26 26 50 45 54 42 3 -3 0 -9 -6 -13z m616 -1638 c-14 -17 1 -56 20 -51
21 5 26 -32 7 -39 -8 -3 -12 -14 -9 -25 3 -11 0 -19 -7 -19 -9 0 -7 -7 5 -20
17 -19 14 -24 -15 -22 -3 0 -6 -12 -6 -26 -2 -26 -1 -26 9 -4 11 24 33 31 23
7 -8 -21 -2 -19 20 8 10 12 15 19 10 15 -13 -11 -37 27 -30 46 8 21 89 32 111
15 13 -11 17 -11 20 -1 6 17 30 15 36 -2 6 -16 -26 -32 -42 -21 -6 3 -15 -3
-21 -12 -8 -15 -9 -13 -4 10 6 28 3 30 -32 21 -16 -4 -19 -11 -16 -35 5 -33
29 -50 42 -29 6 9 10 9 21 -3 13 -14 49 -12 49 3 0 5 -10 6 -22 2 -14 -3 -19
-2 -14 6 14 24 66 3 66 -26 0 -6 6 -12 13 -15 6 -2 9 -7 6 -11 -4 -4 -14 0
-22 9 -9 8 -18 15 -21 15 -12 0 -6 -28 7 -33 8 -3 5 -8 -8 -13 -22 -10 -34
-59 -13 -51 7 2 12 11 10 21 -6 31 13 16 35 -28 18 -38 19 -47 8 -62 -10 -15
-16 -16 -28 -6 -12 11 -19 7 -41 -20 -25 -33 -25 -33 -4 -36 19 -3 37 12 38
31 0 15 -19 6 -23 -10 -4 -17 -5 -17 -6 0 -1 22 25 33 43 18 7 -6 16 -8 20 -4
4 4 4 -1 0 -12 -7 -18 -6 -18 9 -6 14 11 17 11 17 0 1 -11 3 -10 13 2 7 9 19
14 27 12 10 -3 9 0 -3 7 -9 6 -22 8 -27 5 -6 -3 -10 -4 -10 -1 0 2 -3 13 -7
23 -7 17 -6 17 21 -1 22 -14 30 -15 36 -5 5 6 6 17 4 23 -2 6 9 19 26 29 16
10 30 14 30 9 0 -5 -10 -12 -21 -15 -14 -4 -20 -11 -16 -21 3 -8 -1 -20 -8
-26 -8 -7 -12 -16 -9 -22 3 -5 1 -15 -6 -23 -9 -11 -7 -16 9 -24 14 -8 21 -8
25 2 3 6 3 1 0 -11 -5 -21 -4 -23 15 -13 28 15 27 4 -1 -20 -13 -10 -17 -18
-10 -19 6 0 12 5 12 10 0 6 5 10 11 10 5 0 8 -4 5 -8 -8 -13 58 -1 67 12 5 6
5 0 2 -13 l-7 -24 35 27 c30 23 35 24 41 10 5 -14 9 -13 26 7 l19 24 1 -25 c0
-20 -2 -22 -10 -10 -8 13 -10 13 -10 -2 0 -23 20 -27 60 -10 19 8 32 11 28 6
-4 -4 -3 -13 2 -19 8 -9 4 -11 -15 -7 -21 4 -24 1 -18 -14 6 -16 4 -17 -9 -7
-8 7 -18 10 -21 6 -4 -3 -7 -1 -7 5 0 7 -5 12 -11 12 -6 0 -8 -7 -5 -16 6 -14
4 -15 -9 -4 -13 11 -13 15 -3 22 9 6 7 8 -7 6 -12 -2 -19 2 -17 10 2 14 -7 15
-26 3 -11 -6 -7 -13 16 -29 23 -17 28 -27 24 -47 -2 -15 0 -25 7 -25 17 0 13
-17 -6 -24 -10 -3 -25 -9 -33 -12 -12 -6 -12 -4 1 12 18 21 14 42 -10 61 -11
8 -12 12 -3 13 6 0 12 5 12 10 0 19 -25 10 -36 -14 -10 -21 -9 -23 4 -18 10 3
13 1 8 -6 -4 -7 -21 -10 -39 -8 -18 3 -36 5 -42 6 -5 1 0 5 13 11 15 5 20 13
16 21 -6 9 -9 9 -12 0 -5 -15 -32 -16 -32 -1 0 8 -5 8 -15 -1 -8 -7 -13 -16
-10 -20 8 -12 -20 -19 -36 -9 -11 7 -11 9 4 9 9 0 17 5 17 10 0 14 -15 13 -28
-2 -7 -9 -5 -20 9 -37 14 -17 19 -19 19 -7 0 9 5 16 10 16 6 0 10 -8 10 -17 0
-15 2 -16 10 -3 6 9 5 17 -2 21 -6 4 -6 9 -1 12 6 4 20 -3 31 -14 12 -11 22
-15 22 -9 0 5 5 10 11 10 7 0 9 -11 6 -27 -3 -19 1 -31 17 -44 27 -23 47 -24
39 -3 -5 14 -2 14 23 -2 40 -25 42 -27 17 -20 -19 6 -22 2 -31 -41 -6 -26 -8
-51 -6 -55 3 -4 -3 -5 -13 -1 -17 6 -17 5 1 -15 10 -12 23 -19 27 -16 5 3 9 0
9 -6 0 -7 -6 -10 -14 -7 -16 6 -26 -13 -25 -46 0 -20 1 -21 8 -3 7 19 8 19 23
-2 8 -12 18 -19 23 -14 4 4 5 -1 2 -11 -4 -11 -3 -16 3 -12 6 3 10 1 10 -5 0
-6 -6 -13 -14 -16 -8 -3 -12 -12 -9 -20 4 -11 10 -8 24 10 17 22 18 27 4 59
-14 33 -11 52 6 41 4 -2 6 -11 2 -19 -7 -19 24 -68 38 -59 5 3 16 3 24 0 12
-4 12 -10 -3 -36 -9 -16 -25 -33 -35 -36 -12 -4 -15 -12 -11 -28 4 -17 -1 -27
-20 -40 -19 -12 -26 -13 -26 -4 0 8 -4 7 -10 -4 -6 -10 -18 -14 -30 -11 -14 4
-20 0 -20 -11 0 -9 -6 -16 -12 -16 -9 0 -8 -4 2 -10 22 -14 33 -12 27 5 -4 8
-2 17 3 20 6 4 10 -2 10 -12 1 -17 2 -16 16 2 12 16 16 17 23 6 7 -11 10 -9
16 8 4 14 12 20 21 17 14 -5 19 15 15 59 -1 15 1 17 11 7 16 -16 33 -16 20 1
-7 8 -5 18 6 32 20 24 58 30 66 9 3 -8 10 -14 16 -14 6 0 8 5 5 10 -3 6 -1 10
5 10 7 0 10 -6 7 -12 -2 -7 -13 -12 -23 -11 -15 2 -19 -5 -19 -33 0 -20 7 -39
15 -45 11 -8 9 -9 -9 -4 -16 5 -21 4 -17 -4 4 -6 17 -11 28 -11 19 0 19 -2 -6
-21 -15 -12 -30 -18 -34 -15 -3 4 0 11 8 17 11 7 6 8 -15 4 -24 -5 -27 -4 -13
5 10 6 18 21 17 33 0 12 3 34 7 50 4 17 2 27 -5 27 -10 0 -12 -5 -11 -25 0 -3
-11 -18 -24 -32 -14 -15 -22 -30 -17 -33 13 -8 9 -40 -5 -40 -6 0 -14 -7 -17
-15 -5 -11 -1 -12 18 -5 31 12 31 7 3 -20 -12 -11 -17 -20 -10 -20 6 0 14 5
18 11 3 6 19 9 35 7 23 -4 26 -2 18 9 -15 17 4 18 31 1 26 -17 39 0 35 48 -1
19 3 37 8 41 6 3 7 1 3 -5 -4 -7 -2 -12 4 -12 7 0 10 -7 6 -15 -6 -17 2 -45
14 -45 5 0 6 10 2 22 -3 13 -1 19 5 15 9 -6 25 -57 17 -57 -1 0 -10 -3 -20 -7
-13 -5 -15 -3 -9 7 5 9 3 11 -6 6 -8 -3 -22 -9 -31 -12 -10 -4 -18 -10 -18
-14 0 -5 -3 -15 -6 -24 -3 -9 -1 -16 5 -16 6 0 11 6 11 14 0 15 27 29 41 21
18 -12 55 24 57 55 2 19 -2 29 -8 25 -12 -8 -13 5 -1 24 7 10 11 5 16 -17 3
-18 3 -37 -1 -43 -5 -9 -2 -10 9 -6 10 3 17 2 17 -3 0 -6 -4 -10 -10 -10 -5 0
-7 -7 -4 -15 4 -8 1 -15 -5 -15 -6 0 -11 -5 -11 -11 0 -6 9 -8 20 -4 11 4 20
2 20 -4 0 -21 18 -11 24 14 4 14 12 25 20 25 7 0 18 10 24 23 11 21 11 20 6
-5 -4 -19 -2 -28 6 -28 9 0 9 -4 2 -13 -6 -7 -7 -18 -3 -26 7 -11 11 -9 20 5
9 17 10 17 11 2 0 -22 -33 -40 -56 -31 -11 4 -15 3 -10 -5 8 -13 -14 -52 -29
-52 -13 0 -17 38 -4 45 5 3 6 -1 3 -9 -3 -9 -1 -16 5 -16 6 0 11 3 12 8 0 4 2
15 4 25 2 10 -3 17 -13 18 -10 1 -30 3 -47 5 -17 2 -25 0 -17 -5 7 -4 11 -14
9 -22 -2 -8 -2 -11 0 -6 9 14 22 7 20 -12 0 -11 -4 -18 -8 -15 -17 10 -39 -10
-38 -35 0 -15 3 -20 6 -11 7 18 23 30 42 30 10 0 7 -8 -10 -27 -17 -19 -19
-24 -7 -20 20 7 29 -11 17 -35 -6 -10 -5 -19 1 -23 13 -8 24 20 16 40 -10 27
9 15 32 -20 27 -43 27 -48 2 -40 -21 7 -29 -10 -7 -18 23 -8 48 13 41 35 -4
13 -2 18 5 14 6 -4 21 0 34 9 22 14 25 14 37 0 11 -13 9 -19 -11 -33 -13 -9
-28 -16 -32 -14 -9 3 -27 -11 -63 -48 -21 -20 -28 -22 -45 -12 -12 8 -19 8
-19 2 0 -6 11 -16 25 -22 14 -6 25 -17 25 -25 0 -16 16 -17 26 -1 4 6 3 8 -3
5 -6 -4 -14 1 -17 10 -7 18 27 56 40 45 4 -4 4 -2 1 4 -8 14 17 26 37 18 9 -3
17 3 21 15 3 12 11 19 16 16 5 -4 5 -14 -1 -25 -13 -24 -13 -33 0 -25 6 3 10
4 10 1 0 -2 3 -12 7 -22 5 -13 3 -16 -10 -11 -12 4 -14 2 -10 -11 5 -14 3 -13
-9 2 -9 12 -20 16 -28 11 -9 -5 -11 -4 -6 3 4 7 3 12 -2 12 -16 0 -23 -31 -12
-45 8 -10 8 -15 -1 -21 -8 -4 -9 -3 -5 4 4 7 3 12 -3 12 -5 0 -13 -4 -16 -10
-3 -5 -14 -10 -25 -10 -10 0 -21 -8 -25 -17 -5 -15 -4 -16 6 -5 7 6 17 12 23
12 5 0 6 -3 3 -7 -4 -3 -2 -12 3 -18 14 -17 -16 -28 -40 -15 -30 16 -38 11
-10 -6 l25 -15 -26 5 c-25 5 -65 -25 -51 -39 4 -3 0 -10 -8 -15 -22 -14 -34
-12 -22 3 13 15 -1 42 -17 33 -6 -4 -11 -2 -11 4 0 6 6 13 14 16 8 3 12 12 9
20 -4 10 0 12 11 8 9 -3 16 -1 16 5 0 6 -9 11 -20 11 -13 0 -20 -7 -20 -19 0
-26 -15 -35 -37 -22 -17 10 -16 10 2 11 15 0 17 2 6 9 -8 5 -10 14 -6 21 5 8
3 11 -5 8 -6 -2 -18 -18 -26 -36 -13 -32 -13 -32 16 -32 17 0 30 -4 30 -10 0
-5 -7 -10 -16 -10 -14 0 -14 -2 0 -15 8 -8 20 -15 26 -15 6 0 8 -5 5 -10 -4
-7 -12 -7 -25 0 -27 15 -32 12 -18 -10 10 -16 9 -23 -9 -42 l-22 -23 24 -11
c17 -8 27 -8 34 -1 14 14 14 37 0 37 -6 0 -8 -7 -4 -17 5 -14 3 -15 -6 -6 -6
6 -9 19 -5 29 4 9 9 14 13 10 3 -3 13 4 21 15 10 15 17 18 22 9 11 -17 72 -23
82 -8 5 9 8 6 8 -9 0 -16 -4 -21 -15 -17 -17 7 -21 -21 -4 -31 6 -4 8 -13 5
-20 -3 -9 4 -9 27 3 42 20 40 17 28 40 -8 15 -7 23 4 32 11 9 15 10 15 1 0 -7
5 -9 11 -6 6 4 19 -2 30 -14 11 -12 24 -21 29 -21 15 0 12 20 -2 20 -7 0 -2
10 12 21 14 12 18 19 9 16 -9 -3 -16 1 -16 8 0 11 5 12 21 2 28 -15 45 -17 52
-6 3 5 2 9 -3 8 -21 -4 -28 3 -29 29 -1 17 4 29 12 29 7 0 11 -4 8 -9 -7 -11
3 -10 29 3 22 10 22 10 2 -7 -13 -11 -16 -18 -8 -21 7 -2 9 -11 6 -19 -3 -8 1
-14 11 -14 10 0 13 -6 10 -15 -4 -8 -17 -15 -31 -15 -14 0 -22 -4 -18 -10 4
-6 11 -8 16 -5 18 12 47 -6 52 -33 4 -23 4 -24 -7 -9 -7 9 -16 14 -19 10 -4
-3 -7 -1 -7 6 0 7 -10 10 -25 7 -14 -3 -23 -1 -20 4 3 5 1 19 -5 30 -9 16 -13
18 -24 8 -11 -11 -11 -15 3 -25 13 -10 14 -14 3 -25 -11 -11 -12 -10 -6 7 7
18 6 18 -9 7 -9 -8 -20 -11 -26 -8 -5 3 -12 0 -14 -6 -3 -8 -6 -6 -6 5 -1 21
-8 22 -29 0 -16 -16 -16 -16 0 -11 9 4 22 0 28 -8 7 -8 18 -14 24 -14 6 0 4 5
-4 10 -13 8 -12 10 3 10 14 0 17 -5 12 -21 -6 -18 -4 -20 15 -14 13 4 25 3 30
-4 9 -15 40 -3 40 16 0 8 4 12 10 8 5 -3 6 -13 3 -21 -5 -14 -3 -14 17 -2 18
10 24 10 27 1 4 -10 8 -9 19 1 17 17 19 30 2 20 -7 -5 -8 -3 -3 6 6 10 12 7
26 -11 9 -13 16 -27 13 -30 -9 -15 8 -36 28 -34 25 2 36 24 18 35 -8 5 -3 9
13 12 18 3 24 1 20 -8 -2 -7 2 -25 11 -41 11 -21 15 -23 16 -10 0 17 1 17 16
3 8 -9 20 -16 25 -16 6 0 7 -6 2 -12 -4 -7 -6 -20 -5 -30 2 -9 -3 -20 -9 -24
-9 -5 -10 -2 -6 10 5 13 3 17 -7 13 -9 -4 -16 3 -20 16 -5 18 -8 19 -16 7 -7
-12 -12 -12 -22 -2 -9 9 -9 12 0 12 7 0 12 9 12 21 0 12 -5 19 -12 16 -7 -2
-12 -8 -11 -13 1 -5 -18 -9 -41 -9 -40 0 -42 -1 -38 -25 5 -23 4 -24 -11 -8
-10 9 -17 21 -17 27 0 6 -4 11 -9 11 -5 0 -11 9 -14 20 -7 26 -24 26 -32 0 -7
-21 -25 -28 -25 -9 0 8 -5 7 -15 -1 -9 -7 -14 -19 -11 -26 3 -8 0 -11 -9 -8
-7 3 -16 12 -19 19 -3 9 0 12 10 8 10 -4 12 0 8 11 -3 9 -17 19 -30 22 -13 3
-21 10 -18 15 3 5 1 9 -5 9 -5 0 -13 -4 -16 -10 -9 -14 -21 -12 -41 7 -16 16
-16 16 -10 -5 5 -15 3 -22 -6 -22 -10 0 -10 -2 1 -9 12 -8 12 -12 2 -25 -12
-14 -10 -16 13 -16 14 0 26 -1 26 -2 0 -2 -7 -21 -14 -43 -14 -40 -36 -59 -36
-31 0 19 -16 21 -23 4 -3 -8 -6 -5 -6 5 -1 10 -5 15 -11 12 -5 -3 -15 3 -21
13 -12 19 -13 18 -37 -10 -24 -29 -26 -29 -39 -12 -7 10 -11 24 -9 31 3 7 1
15 -4 18 -6 4 -10 -1 -10 -9 0 -18 -25 -22 -35 -6 -8 13 19 40 39 40 9 0 16 8
15 18 0 10 -3 12 -6 5 -2 -7 -9 -13 -14 -13 -6 0 -7 4 -4 10 3 6 2 10 -4 10
-5 0 -13 -5 -16 -10 -4 -6 -11 -8 -16 -5 -17 11 -49 14 -49 4 0 -5 6 -9 13 -9
28 -1 38 -16 28 -43 -6 -15 -15 -27 -20 -27 -7 0 -7 9 -2 23 7 19 3 25 -28 43
-32 19 -38 19 -53 6 -13 -11 -18 -12 -18 -2 0 8 -10 11 -28 8 -28 -4 -28 -4
-18 34 9 33 7 41 -9 56 -18 16 -18 16 -6 0 10 -14 11 -18 1 -18 -9 0 -10 -3
-1 -14 8 -9 8 -21 1 -40 -10 -27 -4 -56 11 -56 5 0 9 -5 9 -10 0 -6 -5 -9 -12
-8 -6 2 -14 -5 -16 -16 -3 -13 0 -16 9 -11 9 6 11 3 6 -8 -5 -13 0 -17 21 -18
18 0 22 -3 12 -7 -10 -5 -16 -23 -17 -52 l-3 -45 15 40 c8 22 15 42 15 45 1 3
8 -7 16 -22 8 -16 19 -28 24 -28 14 0 12 17 -2 24 -7 3 -2 3 12 0 18 -4 32 1
45 15 24 27 15 36 -12 12 -11 -11 -25 -16 -30 -13 -14 10 -4 69 13 76 17 7 18
-6 2 -22 -16 -16 -2 -28 15 -14 8 7 16 10 19 7 3 -3 11 1 18 10 16 19 26 19
34 -1 5 -12 2 -15 -10 -10 -11 4 -15 2 -11 -8 3 -8 -6 -26 -20 -40 -21 -22
-23 -28 -13 -41 11 -13 10 -14 -4 -9 -9 3 -16 1 -16 -5 0 -6 5 -11 10 -11 6 0
10 -5 10 -11 0 -7 -10 -9 -25 -5 -18 5 -27 2 -31 -9 -3 -8 -11 -12 -18 -8 -7
3 -6 1 1 -7 11 -12 15 -11 26 5 11 14 16 15 22 5 5 -9 4 -11 -3 -6 -8 5 -12
-1 -12 -18 0 -13 -6 -27 -12 -29 -7 -3 -1 -6 14 -6 14 -1 28 5 30 11 3 8 14 2
31 -16 26 -27 28 -28 46 -12 19 17 56 12 45 -6 -4 -6 -10 -5 -16 3 -8 11 -9
10 -5 -3 7 -19 -28 -68 -48 -68 -7 0 -16 -6 -18 -12 -4 -10 -6 -10 -6 0 -1 7
6 15 14 18 8 4 15 10 15 16 0 5 -5 6 -12 2 -7 -5 -9 -2 -6 7 4 10 -1 15 -13
15 -22 0 -24 -7 -6 -25 10 -10 8 -11 -6 -5 -10 4 -23 17 -28 30 -4 13 -14 24
-21 23 -10 0 -10 -2 0 -6 6 -2 12 -22 12 -43 0 -21 6 -41 13 -44 6 -3 3 -4 -8
-3 -15 2 -19 9 -18 27 1 14 -1 17 -3 8 -3 -10 -11 -15 -20 -11 -10 4 -14 -3
-14 -26 0 -17 -5 -31 -11 -31 -8 0 -7 -5 2 -16 11 -14 13 -14 21 1 6 10 17 14
28 10 13 -4 23 1 31 13 7 11 18 18 25 15 7 -2 32 16 57 40 41 42 45 43 43 21
0 -13 -5 -23 -11 -21 -12 4 -46 -29 -38 -36 3 -3 11 -3 18 -1 7 3 16 1 19 -5
4 -6 13 -8 20 -5 7 3 21 -2 29 -11 14 -13 18 -13 29 -1 11 11 16 11 36 -2 17
-11 20 -17 11 -23 -9 -5 -5 -10 12 -14 19 -5 25 -13 26 -40 2 -19 -2 -35 -7
-35 -6 0 -10 6 -8 13 8 42 -44 86 -97 83 -16 -1 -38 2 -47 6 -13 6 -16 5 -13
-5 4 -8 -3 -13 -15 -14 -15 -1 -20 3 -16 15 7 21 -10 50 -21 38 -4 -5 -2 -11
5 -13 6 -3 12 -9 12 -15 0 -6 -6 -8 -14 -5 -10 4 -12 0 -8 -15 3 -14 1 -19 -6
-14 -7 4 -12 14 -12 22 0 8 -7 14 -16 14 -10 0 -14 -6 -11 -15 4 -8 2 -17 -4
-20 -5 -4 -7 -10 -4 -15 3 -4 -14 -3 -38 4 -23 6 -51 11 -62 11 -24 -1 -44 22
-45 49 0 15 -3 17 -11 9 -8 -8 -6 -19 5 -41 10 -19 12 -33 6 -37 -6 -3 -10
-11 -10 -16 0 -6 4 -8 9 -5 14 9 20 -46 6 -60 -7 -7 -15 -10 -19 -7 -3 4 -6 0
-6 -9 0 -12 -38 -38 -55 -38 -14 0 -2 18 17 27 21 9 20 10 -8 10 -27 0 -30 -3
-26 -24 6 -31 21 -37 58 -23 l29 11 -22 -21 c-26 -23 -29 -35 -11 -46 8 -5 9
-2 5 10 -6 14 -3 17 8 12 9 -3 13 -2 10 3 -3 5 -1 12 5 16 5 3 10 -1 10 -10 0
-13 4 -14 20 -5 15 8 18 7 15 -2 -3 -7 -19 -19 -36 -27 -20 -9 -27 -17 -21
-23 12 -12 35 -1 27 13 -4 5 1 9 11 9 15 0 15 -2 -1 -27 -18 -28 -18 -28 2
-11 11 10 28 17 39 17 17 -1 17 -2 1 -6 -15 -4 -16 -7 -6 -20 11 -12 10 -17
-3 -24 -9 -5 -15 -17 -13 -27 2 -9 4 -23 4 -31 1 -7 7 -11 14 -8 6 2 20 -7 31
-20 l18 -25 -31 16 c-26 14 -31 14 -31 2 0 -19 62 -45 68 -28 7 21 20 13 15
-8 -3 -11 0 -26 6 -34 17 -20 -14 -45 -32 -26 -10 10 -9 11 2 5 10 -6 12 -4 7
4 -6 9 -13 8 -27 -5 -24 -21 -25 -37 -1 -30 9 3 26 -1 36 -9 19 -15 19 -15 1
-29 -24 -17 -32 -58 -9 -49 8 3 13 12 10 19 -3 7 0 11 7 8 7 -2 18 8 24 23 10
26 11 26 12 5 1 -12 8 -25 16 -28 24 -10 17 -24 -20 -40 -42 -17 -48 -18 -40
-1 4 6 0 4 -8 -5 -8 -10 -16 -15 -19 -13 -3 3 -10 -1 -16 -8 -9 -11 -7 -13 10
-13 11 1 23 -5 25 -12 3 -8 -1 -10 -13 -5 -15 6 -14 3 4 -17 17 -19 25 -21 34
-12 8 8 8 12 1 12 -6 0 -13 9 -16 20 -4 16 0 20 19 20 17 0 22 -4 18 -15 -4
-8 -1 -15 5 -15 6 0 11 9 11 21 0 12 5 19 13 16 6 -2 11 -9 10 -15 -1 -5 7 -8
19 -4 14 3 19 1 14 -6 -3 -6 -2 -13 4 -17 5 -3 15 -15 21 -27 6 -11 7 -18 1
-15 -5 4 -18 0 -28 -8 -12 -9 -14 -14 -6 -15 7 0 10 -5 7 -10 -4 -6 -15 -8
-26 -5 -14 5 -17 2 -13 -8 4 -11 -1 -13 -20 -10 -13 3 -27 12 -30 20 -4 11 -1
13 14 8 15 -5 21 0 26 19 3 14 10 26 16 26 5 0 6 -4 3 -10 -3 -5 -1 -10 4 -10
6 0 11 9 11 20 0 22 -3 23 -37 14 -14 -4 -20 -11 -16 -22 3 -13 2 -14 -4 -4
-14 18 -66 -11 -68 -37 -1 -17 1 -19 14 -8 16 13 16 14 -4 -35 -4 -11 -3 -18
5 -18 7 0 6 -5 -4 -15 -19 -19 -26 -19 -26 0 0 8 -7 15 -15 15 -8 0 -15 5 -15
10 0 14 -33 13 -48 -2 -9 -9 -12 -9 -12 3 0 7 -4 21 -10 29 -8 12 -11 12 -27
-2 -18 -17 -66 -21 -57 -6 3 4 0 8 -6 8 -6 0 -8 5 -5 10 4 6 11 7 17 4 7 -4 8
-2 4 4 -4 7 -3 12 3 12 5 0 13 -5 16 -10 3 -6 11 -10 17 -10 6 0 4 8 -5 18
-10 10 -14 22 -10 25 3 4 1 7 -5 7 -6 0 -15 -6 -19 -14 -4 -8 -15 -16 -23 -18
-16 -3 -30 -18 -30 -31 0 -5 5 -5 10 -2 6 3 10 1 10 -6 0 -6 -8 -9 -20 -6 -17
4 -20 2 -15 -13 3 -10 1 -21 -4 -25 -7 -4 -8 1 -4 11 5 13 2 16 -9 11 -12 -4
-14 -1 -11 14 3 10 11 19 19 19 23 0 26 21 5 39 -27 23 -27 41 -1 41 14 0 20
7 20 23 -1 20 -2 21 -14 5 -7 -10 -17 -18 -22 -18 -5 0 -16 -9 -24 -19 -10
-15 -18 -17 -31 -10 -29 15 -33 10 -8 -11 20 -16 21 -19 7 -20 -10 0 -18 5
-18 10 0 6 -7 10 -16 10 -9 0 -12 5 -8 13 5 8 2 8 -9 -2 -15 -12 -17 -11 -17
7 0 26 18 38 33 23 17 -17 52 -13 71 8 14 15 14 20 3 29 -8 7 -17 9 -21 5 -4
-4 -11 -1 -15 6 -7 10 -10 9 -16 -8 -7 -23 -20 -27 -31 -10 -3 6 0 15 7 20 7
4 10 11 6 16 -5 4 -12 1 -16 -6 -6 -10 -10 -10 -16 -1 -4 7 -17 9 -32 5 -14
-3 -22 -2 -19 4 3 5 -2 12 -11 16 -10 3 -19 1 -21 -4 -2 -6 -8 -11 -13 -11
-13 0 0 28 16 34 8 3 21 -2 30 -10 14 -14 18 -14 41 0 13 9 22 22 18 28 -4 5
0 15 7 20 11 7 11 11 2 15 -7 2 -13 10 -13 17 0 7 -9 21 -20 31 -14 13 -17 22
-10 30 8 10 3 12 -22 10 -27 -2 -34 2 -47 29 -15 29 -42 43 -40 21 0 -5 8 -9
17 -7 10 2 13 0 7 -5 -7 -5 -5 -19 6 -40 9 -18 20 -29 24 -25 5 4 5 1 1 -5
-10 -19 -26 -16 -26 5 0 9 -14 28 -30 41 -16 13 -27 27 -24 32 7 12 -10 11
-22 -1 -6 -6 -10 -1 -12 15 -1 13 3 27 8 30 5 3 7 -1 4 -9 -4 -10 0 -14 15
-13 21 1 31 17 11 17 -5 0 -10 6 -10 13 0 14 76 11 86 -4 3 -5 0 -9 -5 -9 -19
0 -12 -29 10 -40 12 -7 18 -18 15 -26 -4 -11 -1 -14 13 -9 23 7 52 -4 49 -19
-3 -16 12 -56 22 -56 14 0 19 40 6 48 -19 10 -39 52 -26 52 6 0 6 7 -2 20 -9
14 -15 16 -21 7 -7 -9 -10 -9 -14 1 -2 6 -11 12 -19 12 -8 0 -14 3 -14 8 0 9
61 38 73 34 5 -1 5 2 2 8 -4 6 -13 9 -21 6 -8 -3 -14 1 -14 10 0 11 -6 15 -20
11 -23 -6 -31 11 -18 37 7 12 7 16 0 12 -6 -3 -13 0 -16 6 -3 7 -3 3 0 -9 3
-13 1 -23 -5 -23 -6 0 -11 5 -11 10 0 6 -7 10 -15 10 -8 0 -19 9 -25 20 -9 17
-14 18 -33 9 -21 -11 -21 -10 -5 7 15 15 21 16 44 5 18 -8 30 -8 39 -1 6 5 15
7 18 3 4 -3 7 -1 7 6 0 8 7 11 15 7 8 -3 18 2 23 10 5 9 11 15 13 14 2 -1 16
4 32 11 27 12 37 29 17 29 -5 0 -10 -4 -10 -9 0 -5 -8 -12 -17 -15 -16 -6 -16
-6 0 12 11 11 15 27 11 38 -5 16 -4 16 5 4 7 -10 11 -11 11 -2 0 6 5 12 11 12
6 0 8 -7 4 -17 -5 -14 -4 -15 6 -6 15 15 -7 47 -28 39 -9 -4 -13 3 -13 19 0
14 -4 24 -9 23 -5 -2 -16 5 -23 15 -11 15 -18 16 -41 8 -17 -7 -27 -18 -27
-31 0 -13 -4 -18 -11 -15 -6 4 -8 13 -5 20 5 15 -17 39 -27 29 -3 -3 -12 -2
-20 3 -33 18 45 73 96 68 24 -3 27 0 27 26 0 16 5 29 10 29 6 0 10 5 10 10 0
6 -9 10 -20 10 -11 0 -20 -6 -20 -13 0 -7 -11 -14 -25 -15 -14 -1 -25 3 -25 9
0 5 4 8 9 4 5 -3 12 -1 16 5 3 5 1 10 -4 10 -6 0 -11 11 -11 25 0 16 6 25 16
25 8 0 12 5 9 10 -4 6 -16 8 -28 5 -12 -2 -16 -2 -9 1 10 5 10 9 1 20 -15 18
-33 18 -26 0 4 -10 1 -13 -9 -9 -19 7 -18 19 2 27 12 5 15 14 10 39 -4 17 -7
40 -7 50 0 18 -29 25 -29 7 0 -5 -8 -10 -17 -10 -15 0 -13 4 7 21 l25 20 -23
-6 c-22 -6 -23 -5 -12 15 9 16 15 19 23 11 6 -6 17 -11 25 -11 11 0 11 3 -2
15 -8 8 -26 15 -40 15 -14 0 -26 5 -26 10 0 6 -7 10 -15 10 -22 0 -18 31 5 37
11 3 17 10 13 16 -4 7 0 8 11 4 10 -4 23 -7 29 -7 7 0 6 -4 -3 -10 -13 -9 -13
-10 1 -10 16 0 45 29 67 68 15 26 7 46 -8 22 -8 -13 -10 -12 -10 2 0 10 9 22
19 28 11 5 19 19 18 29 0 11 -5 17 -9 15 -5 -3 -5 -11 -1 -17 3 -7 -3 -4 -14
6 -28 25 -38 21 -19 -7 18 -28 8 -40 -27 -32 -12 3 -16 3 -8 0 11 -5 11 -8 0
-16 -11 -8 -11 -9 2 -5 19 6 39 -10 39 -31 0 -12 -3 -12 -15 -2 -12 10 -15 9
-15 -7 0 -11 -7 -20 -15 -20 -10 0 -13 7 -9 23 3 12 1 25 -5 28 -7 4 -11 -1
-11 -13 0 -11 -5 -23 -11 -27 -8 -5 -10 0 -6 17 8 32 -4 51 -23 39 -21 -14
-41 -12 -39 3 3 24 -1 37 -12 37 -5 0 -8 -4 -5 -8 2 -4 1 -14 -5 -22 -6 -10
-9 -11 -9 -2 0 6 -6 12 -14 12 -8 0 -18 5 -22 12 -5 8 0 9 14 6 25 -7 30 7 7
16 -8 3 -15 12 -15 21 0 8 -5 15 -11 15 -6 0 -3 7 5 16 14 13 21 13 51 3 36
-13 47 -29 21 -29 -8 0 -18 -5 -22 -11 -4 -8 1 -9 16 -4 20 6 22 4 16 -11 -4
-10 -4 -15 0 -12 3 4 15 -2 27 -13 23 -21 60 -28 39 -7 -7 7 -12 22 -12 35 0
18 6 23 28 23 19 0 23 3 13 9 -8 5 -10 14 -6 21 5 8 4 11 -3 6 -6 -4 -12 4
-14 21 -4 34 -25 36 -45 5 -18 -26 -11 -29 13 -4 17 16 17 16 11 0 -4 -11 0
-21 11 -27 9 -5 13 -13 9 -18 -5 -4 -12 -1 -17 8 -6 10 -22 15 -45 14 -19 0
-35 3 -35 7 0 4 7 8 17 8 9 0 13 3 10 7 -10 10 53 45 70 39 7 -3 21 -20 29
-38 l15 -33 -5 33 c-3 19 -2 31 3 27 5 -3 13 0 17 6 5 9 -1 10 -19 5 -21 -5
-25 -3 -21 9 3 8 10 12 15 9 5 -3 9 1 9 10 0 8 6 17 13 19 7 3 5 6 -5 6 -10 1
-22 -8 -28 -20 -9 -16 -17 -19 -41 -14 -22 5 -29 3 -27 -6 2 -8 -7 -15 -19
-17 -13 -2 -23 -10 -23 -18 0 -19 -18 -18 -37 2 -9 8 -22 13 -29 10 -8 -3 -14
-1 -14 5 0 5 7 12 16 16 8 3 13 12 9 20 -4 11 -1 13 12 9 9 -4 20 -1 25 6 6
10 8 10 8 1 0 -7 -9 -17 -20 -23 -29 -15 -25 -29 8 -26 15 2 32 4 38 5 11 1
22 24 30 66 3 13 1 16 -4 7 -12 -17 -37 31 -26 50 6 11 5 11 -9 -1 -14 -11
-18 -11 -23 2 -3 9 -12 13 -21 10 -13 -5 -13 -3 1 19 9 14 14 33 10 42 -4 10
-1 16 9 16 9 0 19 5 23 11 4 8 0 9 -15 4 -17 -5 -21 -2 -21 14 0 15 -4 19 -17
14 -12 -5 -15 -2 -10 10 8 21 3 21 -18 1 -14 -14 -21 -15 -43 -5 -21 10 -23
14 -11 22 12 7 11 9 -3 9 -10 0 -18 4 -18 9 0 20 22 22 46 6 25 -16 25 -16 15
4 -14 25 -14 41 -1 41 6 0 10 -6 10 -14 0 -9 8 -12 26 -8 17 3 23 9 19 20 -3
8 0 21 7 30 10 12 10 16 1 19 -7 3 -13 12 -13 21 0 13 -3 13 -12 4 -10 -10
-10 -15 1 -21 7 -5 10 -14 6 -20 -5 -9 -11 -7 -20 6 -12 15 -11 22 5 48 11 17
25 30 31 30 7 0 14 5 16 12 3 7 -4 10 -19 7 -13 -2 -17 -2 -10 2 16 8 5 25
-12 18 -21 -8 -27 34 -8 46 13 8 11 9 -10 4 -18 -4 -28 -2 -28 5 0 10 21 16
43 12 5 -1 5 3 2 9 -4 6 -14 9 -22 5 -13 -4 -14 -3 -3 10 10 12 10 15 -3 15
-30 0 -45 -54 -22 -77 8 -8 15 -22 15 -31 -1 -15 -2 -15 -15 2 -8 10 -21 16
-29 13 -9 -4 -15 -1 -13 6 1 7 -2 11 -8 10 -60 -9 -75 -6 -75 17 0 11 5 20 11
20 5 0 8 -4 4 -9 -3 -5 -1 -12 5 -16 9 -5 14 6 12 26 -1 3 10 4 23 1 15 -2 25
0 25 7 0 7 5 9 10 6 6 -3 10 -3 11 2 0 4 2 16 4 26 2 9 -1 17 -6 17 -5 0 -9
-6 -9 -14 0 -7 -8 -20 -17 -27 -15 -12 -16 -12 -10 5 6 15 4 17 -13 13 -11 -3
-20 -1 -20 4 0 5 5 9 10 9 18 0 10 18 -11 23 -16 4 -19 2 -15 -11 4 -9 -3 -6
-13 8 -20 25 -20 25 1 30 11 3 25 16 30 29 7 20 6 23 -12 18 -11 -3 -20 -3
-20 -1 0 8 25 49 34 55 5 4 6 15 2 25 -6 16 -8 16 -16 4 -8 -12 -10 -11 -10 7
0 25 -15 39 -25 23 -11 -17 -20 -11 -33 23 -10 29 -10 30 4 12 13 -17 16 -18
24 -5 13 21 12 38 -2 37 -7 0 -24 1 -38 2 -22 1 -23 3 -7 12 9 5 17 15 17 20
0 6 -4 8 -8 5 -5 -3 -9 2 -9 10 0 9 4 11 10 5 5 -5 16 -7 25 -4 11 5 13 3 7
-7 -5 -9 -4 -11 3 -6 7 4 12 3 12 -3 0 -6 6 -8 14 -5 20 8 8 34 -12 28 -14 -5
-13 -3 2 10 10 8 23 13 27 10 5 -3 9 0 9 5 0 6 -7 11 -16 11 -8 0 -12 5 -9 10
3 6 1 10 -4 10 -6 0 -11 7 -11 15 0 8 -5 15 -11 15 -5 0 -7 -4 -4 -10 3 -5 1
-10 -4 -10 -6 0 -11 4 -11 10 0 5 -7 7 -15 4 -10 -4 -13 -14 -9 -29 3 -13 1
-26 -5 -29 -5 -4 -9 2 -9 11 1 10 -2 28 -6 41 -6 18 -4 22 15 22 18 0 19 2 9
15 -10 12 -10 15 1 16 10 0 11 2 1 6 -18 7 -4 23 21 23 22 1 22 1 2 17 -20 15
-20 15 1 11 17 -4 20 -1 19 23 -1 16 3 29 9 29 5 0 1 7 -10 15 -10 8 -14 15
-8 15 6 0 17 -7 24 -15 7 -8 9 -15 5 -15 -4 0 -2 -6 4 -14 9 -11 9 -15 -1 -20
-10 -5 -10 -7 0 -12 17 -8 15 -24 -3 -24 -8 0 -15 -4 -15 -9 0 -5 10 -7 23 -4
12 3 19 2 14 -2 -4 -5 -17 -10 -29 -12 -21 -3 -38 -19 -38 -35 0 -14 18 -8 24
7 3 8 10 15 17 15 6 0 9 -7 5 -15 -3 -8 -1 -15 4 -15 6 0 10 9 10 20 0 11 4
20 10 20 5 0 7 13 4 29 -4 17 -1 32 6 36 8 5 7 10 -4 18 -11 8 -13 17 -7 26
15 23 39 -3 34 -37 -3 -19 -2 -23 5 -13 7 9 12 10 16 2 4 -6 0 -18 -8 -27 -22
-22 -20 -25 14 -19 18 3 30 1 30 -6 0 -6 7 -9 16 -7 20 4 18 23 -3 23 -9 0
-18 6 -20 13 -3 7 1 10 10 6 8 -3 17 -2 20 3 7 12 -15 28 -38 28 -14 0 -21 8
-23 27 -2 17 -8 25 -16 22 -20 -8 -41 25 -37 59 2 27 1 29 -12 19 -12 -10 -18
-10 -31 3 -22 22 -20 28 4 15 16 -8 20 -8 20 4 0 8 -6 17 -12 19 -7 3 -3 6 10
6 23 1 30 15 12 26 -5 3 -10 12 -10 18 0 7 4 6 10 -3 6 -10 10 -11 10 -2 0 6
7 12 15 12 8 0 15 4 15 9 0 5 9 7 20 4 16 -4 19 -2 14 12 -6 14 -3 16 14 11
25 -8 38 10 21 30 -10 12 -10 15 2 12 19 -4 29 -30 17 -45 -7 -9 -7 -13 1 -13
6 0 11 5 11 10 0 6 7 10 15 10 8 0 15 7 15 15 0 9 -6 12 -15 9 -8 -4 -15 -4
-15 -1 0 7 30 63 31 57 0 -3 3 -18 5 -34 8 -48 16 -57 38 -40 16 11 17 17 8
26 -9 9 -12 9 -12 -2 0 -12 -2 -12 -12 -1 -10 11 -10 14 0 18 6 3 12 13 12 23
0 24 -29 53 -46 46 -16 -6 -19 10 -3 19 6 4 21 -3 35 -16 13 -12 26 -20 30
-17 3 3 -5 15 -17 27 -17 16 -20 24 -12 32 17 17 46 -56 33 -81 -11 -20 -4
-50 12 -50 5 0 6 10 2 22 -6 20 -5 21 8 10 14 -11 16 -8 20 22 2 19 1 43 -3
53 -7 17 -8 17 -8 -1 -1 -15 -4 -17 -12 -9 -13 13 -4 33 16 33 9 0 11 7 7 22
-5 19 -4 20 10 7 10 -8 13 -18 7 -25z m1052 -1981 c1 -10 1 -21 0 -25 -2 -13
24 -9 38 5 11 10 11 8 2 -10 -6 -12 -11 -32 -12 -45 0 -21 -1 -21 -8 -4 -9 24
-40 30 -48 10 -8 -21 6 -32 18 -14 7 11 9 7 8 -15 -3 -46 0 -57 12 -49 8 4 7
9 -2 15 -10 6 -10 9 -2 9 20 0 24 -17 8 -33 -13 -13 -13 -16 0 -21 8 -3 12
-12 9 -20 -3 -8 0 -17 5 -21 6 -3 9 -10 6 -14 -2 -5 9 -11 25 -14 23 -5 28
-11 24 -24 -5 -15 -4 -15 4 -3 6 8 9 17 6 21 -2 4 3 13 12 20 13 11 14 9 8
-16 -6 -25 -5 -27 14 -23 18 5 19 3 10 -23 -10 -29 -22 -37 -32 -20 -4 5 -1
11 6 13 6 2 8 9 4 16 -9 15 -44 -18 -38 -35 4 -13 -1 -15 -38 -15 -42 0 -49 2
-44 16 3 7 -2 16 -10 19 -9 4 -12 14 -9 26 4 16 -3 25 -31 42 -20 11 -36 25
-36 30 0 5 3 8 8 7 8 -3 12 5 12 25 0 8 -4 7 -10 -3 -6 -10 -10 -11 -10 -2 0
19 -17 14 -23 -8 -3 -11 -1 -20 5 -20 13 0 0 -18 -22 -30 -13 -7 -21 -7 -26 2
-4 6 -3 8 3 5 6 -4 17 1 24 10 12 14 11 15 -11 9 l-25 -8 23 17 c12 9 22 21
22 27 0 6 -8 3 -19 -6 -17 -16 -19 -16 -25 0 -4 9 -1 30 6 45 13 29 28 39 28
18 0 -5 5 -7 10 -4 8 5 8 11 0 20 -6 7 -8 21 -4 31 5 18 5 18 -9 2 -8 -10 -17
-15 -20 -11 -4 3 -15 -5 -26 -18 -10 -13 -16 -26 -11 -29 8 -5 13 -52 11 -95
-1 -16 -3 -17 -13 -6 -10 10 -10 15 -2 18 7 2 10 13 7 24 -4 14 -11 18 -24 14
-14 -5 -17 -2 -13 9 3 9 2 16 -4 16 -5 0 -12 -7 -16 -15 -6 -17 -42 -20 -52
-4 -4 8 0 9 15 4 25 -8 29 10 4 20 -17 7 -17 8 -1 14 13 4 15 10 8 21 -8 12
-11 13 -19 1 -6 -9 -11 -10 -15 -2 -10 16 0 28 29 34 19 3 25 1 21 -9 -3 -8
-1 -14 4 -14 6 0 10 -7 10 -15 0 -20 15 -19 35 1 10 11 14 25 11 40 -4 14 -2
24 4 24 5 0 10 -4 10 -10 0 -15 17 -12 23 4 5 12 -3 14 -34 12 -46 -4 -52 9
-8 18 47 9 59 7 59 -9 0 -8 7 -15 15 -15 8 0 15 8 15 17 0 15 2 14 16 -3 8
-10 13 -14 10 -7 -4 6 -2 14 3 17 15 10 24 -33 10 -50 -10 -12 -9 -13 4 -9 8
4 18 22 22 41 3 19 10 32 16 29 5 -4 9 1 9 9 0 22 20 20 21 -1z"/>
<path d="M2306 1287 c-5 -20 -6 -20 -24 -4 -23 21 -34 5 -21 -28 4 -11 8 -14
8 -7 1 20 18 14 24 -10 8 -28 3 -32 -21 -19 -14 8 -24 6 -38 -5 -11 -9 -13
-13 -6 -9 6 3 12 1 12 -5 0 -7 -6 -10 -14 -7 -8 3 -17 1 -20 -6 -3 -7 -3 0 0
16 4 15 2 28 -2 28 -53 8 -55 7 -40 -16 14 -21 14 -25 0 -36 -8 -7 -14 -8 -12
-3 2 5 -1 9 -7 9 -5 0 -9 -3 -7 -7 1 -5 -2 -8 -8 -8 -5 0 -10 9 -10 20 0 11 4
20 9 20 5 0 8 11 7 24 -1 18 -4 22 -13 14 -6 -5 -9 -16 -6 -24 3 -8 0 -14 -6
-14 -6 0 -11 -11 -11 -24 0 -17 7 -26 25 -30 14 -4 25 -10 25 -15 0 -4 18 -7
39 -6 22 1 45 -2 53 -7 9 -6 6 -7 -9 -3 -12 3 -24 1 -28 -5 -4 -7 -1 -10 6 -9
8 2 29 -1 47 -5 23 -6 38 -4 45 4 9 10 8 12 -5 7 -10 -3 -19 0 -22 10 -8 21 3
35 23 28 25 -8 46 38 25 55 -8 7 -14 16 -14 21 0 18 16 8 39 -26 19 -29 26
-33 42 -24 13 7 19 6 19 -1 0 -6 5 -8 10 -5 8 5 7 12 -2 23 -12 15 -11 16 5 3
9 -8 21 -11 24 -7 4 4 1 12 -7 17 -12 9 -12 10 3 5 10 -3 20 -6 23 -6 2 0 1
-8 -2 -17 -5 -15 -3 -15 10 1 22 27 20 33 -11 39 -28 6 -73 -15 -73 -33 0 -21
-19 -9 -39 25 -11 19 -26 33 -33 31 -7 -1 -10 -1 -5 1 4 3 7 11 7 18 0 7 5 15
12 17 8 3 6 6 -4 10 -11 5 -18 0 -22 -15z"/>
<path d="M9243 3511 c-7 -26 -28 -28 -38 -3 -6 16 -7 16 -16 0 -5 -9 -10 -28
-11 -41 -2 -19 -9 -26 -33 -30 -53 -9 -85 -26 -85 -44 1 -17 2 -16 15 1 13 18
20 15 16 -6 0 -5 6 -8 14 -8 8 0 13 -6 11 -12 -1 -7 -1 -10 1 -5 3 4 9 7 15 7
6 0 5 -6 -2 -15 -12 -14 -15 -14 -36 0 -27 17 -54 20 -54 5 0 -5 12 -10 26
-10 14 0 23 -4 20 -9 -11 -17 38 -21 56 -4 24 22 23 32 -7 43 -14 5 -25 17
-25 26 0 15 4 14 24 -6 23 -20 26 -21 41 -7 8 9 11 18 6 21 -5 4 -11 1 -13 -6
-3 -9 -10 -7 -24 7 -18 17 -18 18 -1 12 24 -9 54 7 62 33 7 23 35 27 35 5 0
-8 -4 -15 -10 -15 -12 0 -29 -63 -19 -70 10 -7 -1 -60 -13 -60 -6 0 -8 7 -5
15 9 22 -8 26 -21 4 -8 -12 -8 -19 -2 -19 6 0 8 -11 6 -25 -3 -14 -1 -23 4
-20 5 3 11 1 14 -3 3 -5 -7 -15 -22 -22 -25 -12 -26 -13 -7 -20 27 -10 53 33
34 56 -15 18 -2 18 17 0 15 -16 9 -46 -13 -59 -7 -4 -13 -16 -13 -25 0 -14 -2
-14 -9 -3 -5 7 -14 10 -20 7 -6 -4 -9 -11 -6 -16 3 -4 -3 -7 -12 -6 -9 0 -18
-5 -20 -12 -3 -8 1 -10 11 -6 11 4 15 2 11 -8 -3 -8 3 -22 14 -33 17 -14 23
-15 36 -5 8 7 15 20 15 28 0 13 -3 12 -15 -4 -13 -17 -14 -16 -4 14 7 19 18
36 25 39 8 3 14 12 14 21 0 13 3 13 12 4 10 -10 10 -15 -1 -21 -8 -5 -11 -16
-7 -26 3 -10 2 -23 -4 -30 -8 -9 -6 -17 5 -28 17 -17 11 -41 -17 -72 -16 -17
-20 -17 -28 -5 -5 8 -6 19 -3 25 2 5 -9 -5 -27 -23 -21 -23 -29 -39 -25 -53 4
-10 2 -19 -4 -19 -17 0 -22 36 -10 64 7 14 20 26 31 26 26 0 23 29 -4 40 -13
5 -16 9 -8 9 10 1 11 4 3 12 -12 12 -37 3 -28 -11 3 -5 0 -12 -6 -15 -6 -4 -8
-18 -5 -31 5 -18 2 -24 -11 -25 -10 0 -13 -3 -6 -5 7 -3 9 -12 6 -20 -3 -8 0
-21 7 -29 9 -10 9 -15 1 -15 -6 0 -11 5 -11 10 0 6 -5 10 -11 10 -6 0 -9 -6
-6 -12 2 -7 0 -21 -5 -30 -6 -13 -5 -18 7 -18 8 0 15 4 15 8 0 5 6 9 14 9 8 0
12 -6 9 -14 -5 -12 -17 -17 -36 -14 -5 1 -6 -7 -2 -18 4 -14 0 -23 -17 -32
-21 -11 -22 -11 -10 4 10 12 11 21 2 37 -6 11 -8 24 -5 29 3 5 -7 7 -22 5 -16
-3 -36 -6 -45 -7 -9 -1 -15 -3 -13 -6 3 -2 1 -9 -4 -15 -15 -18 -26 -116 -13
-116 6 0 14 5 18 12 4 7 3 8 -4 4 -15 -9 -15 -6 -1 50 11 43 28 61 25 27 0
-12 7 -19 22 -21 12 -2 22 -10 22 -19 0 -12 7 -10 36 7 26 17 38 20 47 11 30
-30 83 8 71 53 -3 14 -2 26 3 26 4 0 14 9 21 20 10 17 10 20 -2 20 -8 0 -17
-7 -19 -15 -4 -11 -5 -10 -3 2 0 10 11 22 24 28 12 5 22 15 22 22 0 6 4 14 8
17 4 2 8 -17 8 -44 0 -29 -4 -46 -11 -44 -5 2 -16 -10 -24 -27 -12 -27 -12
-32 0 -40 11 -7 10 -9 -4 -9 -10 0 -20 -7 -23 -15 -4 -8 -15 -15 -25 -15 -10
0 -19 -4 -19 -9 0 -5 -7 -12 -16 -15 -11 -4 -15 -2 -11 7 6 17 -38 11 -69 -10
-12 -7 -29 -11 -38 -7 -9 3 -16 1 -16 -5 0 -20 29 -24 46 -7 16 17 66 20 128
9 28 -5 29 -6 11 -19 -10 -8 -16 -14 -12 -14 4 0 3 -8 -2 -19 -6 -10 -7 -21
-4 -25 4 -4 14 8 23 26 8 18 20 33 25 33 6 0 16 4 23 9 8 5 18 4 25 -3 7 -7 8
-11 0 -11 -6 0 -8 -11 -5 -25 5 -28 -14 -35 -21 -7 -4 13 -5 14 -6 1 0 -8 -15
-22 -33 -30 -29 -13 -33 -19 -35 -61 -3 -38 0 -48 12 -48 20 0 19 -9 -2 -33
-10 -11 -12 -17 -4 -12 8 4 17 2 22 -6 7 -11 9 -10 9 4 0 10 5 15 11 12 6 -4
8 -13 5 -21 -3 -7 -1 -16 4 -19 6 -4 10 1 10 9 0 9 7 16 15 16 8 0 15 6 16 13
0 6 4 3 9 -8 7 -17 9 -14 9 13 1 30 0 32 -15 18 -8 -9 -20 -16 -25 -16 -17 0
-9 18 15 38 25 19 25 20 22 169 -1 82 -6 155 -10 161 -4 7 -2 12 5 12 8 0 9
18 4 67 -4 36 -10 73 -13 81 -3 10 -1 13 6 8 7 -4 12 -1 12 8 0 8 -5 18 -10
21 -8 5 -8 11 0 19 10 13 12 102 3 137 -2 9 -14 20 -26 24 -19 6 -20 8 -4 12
9 2 15 9 12 14 -4 5 2 6 12 2 16 -6 16 -5 4 11 -8 9 -20 15 -28 12 -18 -7 -16
1 8 40 11 19 18 38 14 44 -3 5 -1 10 4 10 14 0 14 37 0 45 -6 4 -13 -2 -16
-14z"/>
</g>
</svg>
